<svg id="Layer_1" data-name="Layer 1" xmlns="http://www.w3.org/2000/svg" viewBox="0 0 488 491"><defs><style>.cls-1{fill:#6f7277;stroke:#79f7d0;stroke-linecap:round;stroke-linejoin:round;stroke-width:16px;}.cls-2{fill:#aef4de;stroke-width:1.5px;}.cls-2,.cls-6{stroke:#fff;stroke-miterlimit:10;}.cls-3{fill:#777b7c;}.cls-4{fill:#fff;}.cls-5{fill:#79f7d0;}.cls-6{fill:none;stroke-width:0.5px;}.cls-7{fill:#afbdc4;}.cls-8{fill:#5d605f;}</style></defs><title>team6</title><path class="cls-1" d="M250,13" transform="translate(-7 -2)"/><path class="cls-2" d="M731.18,330.77" transform="translate(-7 -2)"/><path class="cls-2" d="M754.57,308.73" transform="translate(-7 -2)"/><path class="cls-1" d="M250,13" transform="translate(-7 -2)"/><path class="cls-1" d="M245,13" transform="translate(-7 -2)"/><path class="cls-1" d="M245,13" transform="translate(-7 -2)"/><path class="cls-1" d="M250,13" transform="translate(-7 -2)"/><polyline class="cls-1" points="244 483 480 364.25 480 126.75 244 8 8 126.75 8 364.25 244 483"/><polygon class="cls-3" points="103.6 206.6 185.52 206.6 176.73 282.51 118.87 282.51 103.6 206.6"/><path class="cls-4" d="M168.4,113.58a11.68,11.68,0,0,1-1.3-1.72c-2.24-2.91-4.73-6.11-7.94-8a18.85,18.85,0,0,0-3.11-1.42,17.33,17.33,0,0,0-4.95-1.13,14.7,14.7,0,0,0-5.63,1.19l-2.63,1.61-2.78.58c-1.73.95-3.14,1.67-4.28,3.35a11.36,11.36,0,0,0-1.8,3.66,12.07,12.07,0,0,0-.22,3.12,59.39,59.39,0,0,0,.75,7.85l-1.17.73a4.86,4.86,0,0,0-1.39,1.87,6.7,6.7,0,0,0-.4,3.26,4.67,4.67,0,0,0,1.36,3.24,7.16,7.16,0,0,0,2.41,1.61c.37.15.92.19,1.17.5s.24.85.36,1.23a18.81,18.81,0,0,0,6.81,9.38,14.23,14.23,0,0,0,7,2.78q.47,0,.91,0a13.72,13.72,0,0,0,9-4,19.43,19.43,0,0,0,4.45-6.75,7.09,7.09,0,0,1,1.38-2.63c.94-.87,2-1.31,2.76-2.43a7.7,7.7,0,0,0,1.14-3.83,5.21,5.21,0,0,0-1.64-3.95l-1.17-.73H167l-.15-3.65-4.5-3.56,4.56-.65" transform="translate(-7 -2)"/><path class="cls-5" d="M170.34,113.9a11,11,0,0,1-3.15-3.15,40.18,40.18,0,0,0-3.18-4.24,19.94,19.94,0,0,0-6-4,19,19,0,0,0-5.73-1.91c-3.71-.47-6.52,1.19-9.54,3-.39.24-1.15,0-1.59.11a6.66,6.66,0,0,0-2.17.75,9.16,9.16,0,0,0-3.37,3.13,14,14,0,0,0-2,7,31.2,31.2,0,0,0,.2,4.77c.14,1.28.12,2.89,1.07,3.89a7.31,7.31,0,0,1,.95,1,4.05,4.05,0,0,1,.37.85l1.71,4.88h1.22V123.7a21.81,21.81,0,0,0,2.47,0,3.45,3.45,0,0,0,2.59-2.34c.46-1,1.63-2.85,1.55-4a2.26,2.26,0,0,0-.11-.48c-.55-1.84-1.56-3.91-1.7-5.82.29.66.49,1.38.72,2.06.78,2.29,1.69,4.75,3.74,6a9.64,9.64,0,0,0,3.47,1.12,37.38,37.38,0,0,0,6.83.62c2.21,0,4.41-.87,6.54-.9-.4.19-.81.36-1.22.54s0,5.1,0,5.65v3.44h1.52c.3,0,.59-3.13.63-3.44a9.16,9.16,0,0,1,.24-1.25,30.86,30.86,0,0,0,1.23-3.16c.16-.9.19-1.86.3-2.77" transform="translate(-7 -2)"/><path class="cls-5" d="M163.85,147.63l2.64,4.14c.68,1.06,5.9.23,7,.31A19,19,0,0,1,188.92,163a27.15,27.15,0,0,1,2.2,12c0,1.74,0,3.57-.18,5.29-.1,1.25-.54,1.63-1.85,1.63h-76.5c.47,0-.09-6-.11-6.41a32.49,32.49,0,0,1,.52-7.77c1-4.91,3.83-10.84,8.38-13.35,4.39-2.42,9.73-2.25,14.58-2.6l2.64-4.9,13.19,7.91Z" transform="translate(-7 -2)"/><polygon class="cls-6" points="128.97 149.78 138.39 158.82 144.79 152.79 151.76 159.01 159.49 149.78 156.85 145.63 144.78 152.78 131.41 145.06 128.97 149.78"/><path class="cls-4" d="M147.15,159.17c0,.13,2.22,3.14,2.41,3.4a1.11,1.11,0,0,1,.22,1.15q-1.95,9.1-3.89,18.2h13.19c-.3,0-1.73-6.2-1.86-6.66L154.06,164a1.43,1.43,0,0,1,.2-1.42c.64-1.13,1.43-2.47,2.06-3.61-1.49-1.41-3.07-2.69-4.52-4.14Z" transform="translate(-7 -2)"/><path class="cls-7" d="M109.54,217.63H97.21q-7.29-9.5-14.6-19a11.12,11.12,0,0,1-1.73-2.76c-1-2.71-1.22-9.86.62-12.31s7.3-1.6,10.14-1.6h117c-2.74-7.91-5.19-19.44-5.19-19.44s-6.35-7.55-5.65-10.17c1.48-5.57,5.57-5,8.3-3.71,3.83,1.84,2.83,3.71,2.64,5.94-.66,7.94-2,7.47-2,7.47s6.52,19,7.4,19c6.17-.33,11.08-1.74,11,6.36l-.07,4.58a5,5,0,0,1-1.23,3.75q-7.93,10.93-15.83,21.88h-12l.73-11.57-90,.46Z" transform="translate(-7 -2)"/><path class="cls-5" d="M156.42,139.58c0,1.76-2.58,2.89-4.34,2.89s-4.92-1.14-4.92-2.89,3.45-2.31,5.21-2.31S156.42,137.82,156.42,139.58Z" transform="translate(-7 -2)"/><path class="cls-8" d="M155.5,139.64c0,1.41-2.07,2.31-3.47,2.31s-3.93-.91-3.93-2.31,2.76-1.85,4.17-1.85S155.5,138.23,155.5,139.64Z" transform="translate(-7 -2)"/><rect class="cls-5" x="80.73" y="234.42" width="345.24" height="10.25" rx="5.12" ry="5.12" transform="translate(-93.91 313.65) rotate(-56)"/><path class="cls-4" d="M408.18,294.22l-3.87-2.3h-1.93l-.36-8.61a2.18,2.18,0,0,1-1.56-1.09c-3.69-6.19-4-13.52-5-20.4-.78-5.28-2.18-11-5-15.7-3.06-5.1-8.76-7.72-14.42-9.55-7.48-2.43-15.44-3.41-23.18-4.83-5.81-1.07-12.06-2.66-18-1.87a2.14,2.14,0,0,1-1.6,1.38c-6.42,1.63-12.9,3.43-18.66,6.66a31.84,31.84,0,0,0-11.1,10.3c2-.65,4.24,2,2.45,3.87a17.61,17.61,0,0,0-1.27,1.51,6.77,6.77,0,0,0,.94,1.06c2.27,2-1.16,5.27-3.42,3.25l0,0c-1.95,4.24-3,9-4.74,13.21a118,118,0,0,0,1.4,16.73c.39,2.29-2.45,3.54-3.89,2.52,0,.23.07.46.11.69l-3.87,2.3c-2,1.19-3.58,3.94-4.61,5.89-1.59,3-1.49,7-1.31,10.23a14.31,14.31,0,0,0,4.5,10.16,23.81,23.81,0,0,0,8,5.07c1.23.48,3,.59,3.86,1.57s.79,2.66,1.2,3.86A57,57,0,0,0,308,341.2a60,60,0,0,0,17.34,18.34,48.54,48.54,0,0,0,23.26,8.74q1.55.12,3,.11c11.08-.12,22-5.46,29.81-12.63a60.86,60.86,0,0,0,14.71-21.21c1.18-2.77,2.2-6.18,4.58-8.27,3.12-2.74,6.73-4.1,9.14-7.64a23.31,23.31,0,0,0,3.76-12C413.82,301.28,411.68,298.1,408.18,294.22Z" transform="translate(-7 -2)"/><path class="cls-5" d="M354.8,301.16a2.6,2.6,0,0,0-4.84,0l0,0c-6.2,17.09-19,18.2-33.88,13.33-3.5-1.15-6.53-5.7-8.38-9.39-2.27-4.52-3.57-9.51-5.63-16a2.6,2.6,0,0,1,2.31-3.38c10-.62,20.27-2.45,29.59-.25,14.07,3.32,27.29,1.41,41,.21,8.58-.75,17.31.23,26.58.79a2.61,2.61,0,0,1,2.08,3.92c-2.38,4-4.2,6.79-5.12,9.8-3.75,12.29-7,15.49-18.56,16.48-13.26,1.13-19-2-24.18-13.31C355.44,302.7,355.12,301.95,354.8,301.16ZM317,291.84a2.61,2.61,0,0,0-2.73,2.65c.17,11,2.9,14.08,11.06,14.77,10.48.89,14.4-1.68,16.84-13.18a2.61,2.61,0,0,0-2.42-3.15Zm47.54,1.72a2.61,2.61,0,0,0-2.25,3.52c4.53,12.1,9,14.36,19.78,11.91,8.11-1.85,8.3-7.6,8.37-14.44a2.6,2.6,0,0,0-2.79-2.63Z" transform="translate(-7 -2)"/><path class="cls-5" d="M441,326.58c-10.95-4.1-13.72-13.75-15.78-24.06-2.49-12.43-4.88-24.91-8.05-37.18-7.44-28.74-23.78-49.31-53.91-56.58h-24.4c-38.24,8.76-51,38.05-58.06,72-1.71,8.21-3.77,16.35-5.09,24.62-1.56,9.81-4.9,18-16,21,2.68,11.08,8.26,19.34,17.42,24.9a48.92,48.92,0,0,0,12.72,5.62c7.72,2,15.54,4.23,23.44,5.63a11.73,11.73,0,0,1,6.77-2.34,26.82,26.82,0,0,0-1.87-7.6A226.35,226.35,0,0,0,308,330a34.32,34.32,0,0,0-5-8c-3.11-3.41-7.42-3.18-10.69-6-4.08-3.52-5.07-8.66-4.27-13.81,1.23-8,8.49-13.49,16-11.26,23.26,6.86,42.18-.67,58.73-16.85,3.11-3,6.27-6,10.32-9.9,6.25,13.67,14.59,23.48,29.26,27.66,4.13,1.17,8.68,8.67,8.9,13.46s-4.71,8.6-7.43,12a114.81,114.81,0,0,0-10.24,14.45c-4.72,8.12-8,17.31-7.82,26.7,0,.24,0,.48,0,.73a13.63,13.63,0,0,1,5.08,2c18.65-2.55,37.11-8.29,47.58-24.1A13.71,13.71,0,0,1,441,326.58Z" transform="translate(-7 -2)"/><path class="cls-5" d="M344.65,343.4a8.24,8.24,0,0,0,2.93,2.37,14.56,14.56,0,0,0,16.12-1.09" transform="translate(-7 -2)"/><path class="cls-5" d="M377.23,298.06c2.85-1.46,6.08-1.22,8.37-3.07-1.19,1.15-2.48,2.74-4,3.33C379.49,299.36,377.18,299.53,377.23,298.06Z" transform="translate(-7 -2)"/><path class="cls-5" d="M382.39,299.15c-1.57-.79-3.05-.43-4.73-1-2.55-.87-6-1.09-8.37.31-.67.4-2.33,1.87-1.58,1.66,6.42-1.86,10.34,0,12.85,0S379.91,299.28,382.39,299.15Z" transform="translate(-7 -2)"/><path class="cls-5" d="M379.07,298.51c2.85-1.46,6.08-1.22,8.37-3.07-1.19,1.15-2.48,2.74-4,3.33C381.33,299.81,379,300,379.07,298.51Z" transform="translate(-7 -2)"/><path class="cls-5" d="M379.43,299.05c3-1.2,6.17-.66,8.61-2.29-1.29,1-2.72,2.51-4.28,3C381.56,300.56,379.24,300.52,379.43,299.05Z" transform="translate(-7 -2)"/><path class="cls-5" d="M374.94,298.06c2.85-1.46,6.08-1.22,8.37-3.07-1.19,1.15-2.48,2.74-4,3.33C377.19,299.37,374.88,299.54,374.94,298.06Z" transform="translate(-7 -2)"/><path class="cls-5" d="M328.4,298.08c-2.77-1.6-6-1.52-8.2-3.48,1.13,1.21,2.34,2.87,3.82,3.53C326.08,299.27,328.38,299.56,328.4,298.08Z" transform="translate(-7 -2)"/><path class="cls-5" d="M323.19,298.91c1.61-.71,3.07-.28,4.78-.77,2.59-.74,6.05-.78,8.35.74.65.43,2.23,2,1.49,1.74-6.32-2.18-10.33-.54-12.83-.68S325.66,299.17,323.19,298.91Z" transform="translate(-7 -2)"/><path class="cls-5" d="M326.54,298.44c-2.77-1.6-6-1.52-8.2-3.48,1.13,1.21,2.34,2.87,3.82,3.53C324.22,299.63,326.52,299.92,326.54,298.44Z" transform="translate(-7 -2)"/><path class="cls-5" d="M326.16,299c-2.9-1.34-6.13-1-8.49-2.72,1.24,1.1,2.59,2.64,4.13,3.17C324,300.36,326.27,300.44,326.16,299Z" transform="translate(-7 -2)"/><path class="cls-5" d="M330.69,298.2c-2.77-1.6-6-1.52-8.2-3.48,1.13,1.21,2.34,2.87,3.82,3.53C328.37,299.39,330.67,299.68,330.69,298.2Z" transform="translate(-7 -2)"/></svg>