<svg id="Layer_1" data-name="Layer 1" xmlns="http://www.w3.org/2000/svg" viewBox="0 0 651.14 271.5"><defs><style>.cls-1{fill:#00ffb6;}</style></defs><title>fishaudio</title><path class="cls-1" d="M351.78,445.61c-9.78-10.68-19.08-21.77-28.21-33-1.63-2-3.19-4.09-4.83-6.09-3.48-4.24-3.15-8,1-11.6a146.14,146.14,0,0,1,23.87-17,9.32,9.32,0,0,0,1.37-1.14h6c8.1,10.15,16,20.43,24.36,30.39,6.12,7.33,12.59,14.39,19.14,21.34,7.42,7.87,15.11,15.48,22.68,23.2-1.19,1.29-2.7,1-4.19.88-15.13-1.41-30.16-3.62-45.26-5.31C362.43,446.67,357.17,445.46,351.78,445.61Z" transform="translate(-316.36 -376.75)"/><path class="cls-1" d="M933,478.63c4.25,2.39,7.46,6.07,11.08,9.22C951.22,494,958,500.58,965,506.9c.9.82,1,2.36,2.48,2.6v6c-8.39,7.68-16.73,15.42-25.2,23-4,3.54-7.79,7.25-12.21,10.24-1.1-.94-1-2.19-.95-3.45.41-14.31,1.37-28.61,2.13-42.9C931.69,494.48,931,486.43,933,478.63Z" transform="translate(-316.36 -376.75)"/><path class="cls-1" d="M344.25,648.25c-8-5.8-15.89-11.77-24-17.34-4-2.7-5.09-7.25-2-11.06,5.17-6.32,9.51-13.32,15.37-19.1,1.38.39,1.8,1.64,2.39,2.71,6.85,12.47,13,25.28,19.39,38-1.77,2.42-3.46,4.9-5.88,6.76Z" transform="translate(-316.36 -376.75)"/><path class="cls-1" d="M933,478.63c1.69,2.8,0,5.6-.07,8.39-.43,12.78-.53,25.6-1.64,38.33-.68,7.8.18,15.66-1.24,23.39A156.66,156.66,0,0,1,909.81,565c-3.63-3.07-5.26-7.52-7.7-11.39-5.12-8.13-10.38-16.17-15.11-24.54,2.05-3.92,6.17-5.58,9.28-8.33,2.5-2.22,5.34-4.08,8.06-6.07,1.55-1.14,1.37-1.81-.12-3-15.1-12.24-30.64-23.88-46.82-34.66-2.24-1.49-5.16-2.08-6.53-4.77-1.37-4.63-4.45-8.34-6.92-12.35-10-16.26-20.11-32.48-30.12-48.74-1-1.56-2.81-3.31,0-5,25.22,8.85,48.69,21.18,71.07,35.68,16.19,10.48,31.3,22.39,46.18,34.6A18.92,18.92,0,0,1,933,478.63Z" transform="translate(-316.36 -376.75)"/><path class="cls-1" d="M605.26,620.45c-15.51-4.12-30.29-10.22-44.91-16.71-31.12-13.8-59.86-31.74-87.83-51-4.38-3-9.05-5.66-12.95-9.35l.13-.55c1.49-2.47,4.27-2.93,6.55-4.1,11.44-5.85,23.23-11,34.56-17.08a5.33,5.33,0,0,1,3.22-.81c6,2.64,11,6.85,16.44,10.35a481.15,481.15,0,0,0,55.13,31c11.53,5.43,23.4,10,35.37,14.3,1.19.43,2.92.41,2.69,2.46-2.76,11.87-4.36,23.94-6.64,35.89C606.65,616.79,606.72,618.87,605.26,620.45Z" transform="translate(-316.36 -376.75)"/><path class="cls-1" d="M355.38,641.49c-1.74-.23-1.88-1.83-2.47-3q-9.7-18.86-19.31-37.76c3.07-5.13,7.27-9.37,11.12-13.87,12.84-15,26.58-29.12,40.71-42.87,9.27-9,18.71-17.87,28.6-26.22,12,6.3,23.84,12.72,35.85,18.89,1.79.92,4,1.57,4.89,3.76-7,6.19-14.41,11.78-21.43,17.91-11.27,9.85-22,20.24-32.32,31-14.5,15.18-28.05,31.19-41.56,47.25Z" transform="translate(-316.36 -376.75)"/><path class="cls-1" d="M454.76,540.45c-9.36-4.85-19-9.28-28-14.75-4.25-2.59-9.8-3.24-12.77-7.89a7.48,7.48,0,0,1,.91-1.15c5.84-5,5.73-3.19.18-8.5-4.29-4.1-9-7.8-13.32-11.85-14.12-13.13-27.47-27.05-41-40.76-3.14-3.17-6-6.62-9-9.94.8-2.37,2.64-1.28,4.07-1.11,9.3,1.12,18.59,2.31,27.88,3.51,7,.9,13.92,1.91,20.9,2.72,4.17.48,8.37.65,12.55,1,11.55,10.48,23,21.07,35.06,31,1.57,1.29,2.39,1.41,4,.23,4-2.87,8.26-5.45,12.41-8.15,1.32,4.24-.13,8.39-.68,12.5q-3.41,25.53-6.41,51.11a12.52,12.52,0,0,1-1.8,4.83l-.24.24Z" transform="translate(-316.36 -376.75)"/><path class="cls-1" d="M812.25,619c-9.53,3.89-19.49,6.32-29.44,8.77-10.66,2.63-21.52,4.19-32.35,5.85a105.29,105.29,0,0,1-12.59,1.19c-7.57.24-15.13,1.2-22.72.7-2.89-.19-5.77,1.88-8.65,0a39.63,39.63,0,0,1-3.41-13.25c-.72-8.32-3-16.33-4.12-24.56-.23-1.73-.51-3.46.54-5.06,1.38-1.13,3-.95,4.65-1,23.59-.53,47-3,69.9-8.64a275.87,275.87,0,0,0,33.14-10.34c1.63-.62,3.23-1.44,5-.39,1.28,1.28,1.24,2.93,1.25,4.53q.09,18.8,0,37.6C813.44,616.06,813.42,617.69,812.25,619Z" transform="translate(-316.36 -376.75)"/><path class="cls-1" d="M812.25,619c0-14.12,0-28.25,0-42.37,0-1.42.59-3-.86-4.2.16-1.61,1.62-1.78,2.68-2.23a321.47,321.47,0,0,0,40.53-20.67c9.91-6,19.51-12.42,28.89-19.21,1.14-.83,2-2.39,3.84-1.4,4.9,6.16,8.54,13.13,12.72,19.75,3.39,5.36,6.53,10.87,9.78,16.32-8,7-17,12.78-25.83,18.64a337.5,337.5,0,0,1-59.14,31C820.74,616.35,816.45,617.58,812.25,619Z" transform="translate(-316.36 -376.75)"/><path class="cls-1" d="M699.75,592.83c-.23,6.89,2.73,13.31,3.17,20,.51,7.7,3.15,15,3.57,22.66a332.13,332.13,0,0,1-82.44-9.74,3.6,3.6,0,0,1-.91-.55c-.4-2.36,1.6-3,3-3.7,9.72-4.56,18.55-10.73,28.29-15.25a146.59,146.59,0,0,0,16-8.91c6-3.77,12.21-6.72,19.6-5.71C693.3,592,696.74,590.65,699.75,592.83Z" transform="translate(-316.36 -376.75)"/><path class="cls-1" d="M689.43,592.67c-7.64-1.33-13.47,2.79-19.63,6.26-9.58,5.39-19.46,10.23-29,15.66-4.4,2.51-8.73,5.1-13.34,7.25-1.63.76-3.41,1.57-4.31,3.38a91,91,0,0,1-17.89-4.78c1-6.71,2-13.43,3.12-20.12s2.44-13.36,3.6-20c.17-1,.42-1.66,1.49-1.77,1.4-1.15,2.86-.54,4.27-.09,6.9,2.22,13.91,4,20.95,5.67a282.76,282.76,0,0,0,47,6.86C687.11,591.05,688.82,590.72,689.43,592.67Z" transform="translate(-316.36 -376.75)"/><path class="cls-1" d="M459.81,543.19c1.74-14.37,3.4-28.75,5.24-43.1,1.08-8.46,2.43-16.89,3.65-25.34,15.59-11.08,31.79-21.23,48.24-31a450.63,450.63,0,0,1,70.39-34,33.24,33.24,0,0,1,3.61-.93c3.54,1.7,5.4,5.15,7.76,7.95,6.84,8.11,14,15.94,20.69,24.17.84,1,2.12,1.86,1.79,3.5-1,1.64-2.78,2.06-4.43,2.56a341.2,341.2,0,0,0-52,20.9c-14.2,7-27.9,15-41.39,23.32-9.66,6-19,12.43-28.52,18.58-2.4,1.55-2.27,2.39-.06,3.85s4.46,3.18,6.78,4.67c1.11.71,2.88,1.19,2.28,3.21-5.79,2.8-11.59,5.56-17.36,8.41C477.57,534.33,468.69,538.77,459.81,543.19Z" transform="translate(-316.36 -376.75)"/><path class="cls-1" d="M651.66,393c6.18-1.87,12.62-2.06,19-2.8a305.09,305.09,0,0,1,46.82-2c25.27.93,50.24,4.11,74.64,11.08,6.29,1.8,12.66,3.3,18.68,5.94.6.46,1.21.92,1.21,1.78-.4,2.42-1.94,4.33-3.18,6.29-6,9.45-11.87,19-18.06,28.27-.68,1-1.16,2.26-2.58,2.54-3.24.15-6-1.52-9-2.33-6.63-1.79-13.35-3.18-20.07-4.49a289.58,289.58,0,0,0-31.89-4c-6.1-.5-12.19-.72-18.31-.74-12,0-23.87,1.45-35.79,2.52-10.6,1-20.86,3.77-31.4,4.91-2.56-.09-3.62-1.32-2.9-3.88,3.87-13.75,8-27.4,11.77-41.19A11.79,11.79,0,0,1,651.66,393Z" transform="translate(-316.36 -376.75)"/><path class="cls-1" d="M651.66,393c-.63,5.94-2.73,11.53-4.29,17.24-2.38,8.72-5,17.36-7.61,26-.5,1.67-.82,3,1.63,2.8-.17,1.45-1.4,1.73-2.43,1.89-4.68.73-9.13,2.32-13.68,3.55-1.39.37-2.91.92-4.27-.23q-12.73-14.8-25.45-29.61c-1.61-1.88-3.08-3.87-4.62-5.81,12.22-5.13,25-8.47,37.82-11.55C636.3,395.47,643.88,393.65,651.66,393Z" transform="translate(-316.36 -376.75)"/><path class="cls-1" d="M811.5,406.75l-.75-1.52c1.17-.23,2,.66,3,.91-1.08,1.3-.59,2.35.24,3.67q18.38,29.49,36.62,59.07c.58.94,1.93,1.88.65,3.25-1.5.5-2.65-.37-3.8-1a283.8,283.8,0,0,0-33.46-17c-1.46-.62-3.16-1.12-2.94-3.29C811.26,436.09,810.61,421.41,811.5,406.75Z" transform="translate(-316.36 -376.75)"/><path class="cls-1" d="M811.51,451.75,789,443.39c.88-3.28,3-6,4.85-8.61,4-5.62,7.43-11.51,11.05-17.33,2.21-3.56,4.52-7.06,6.6-10.7.93.73.74,1.77.75,2.75q0,19.75,0,39.5C812.24,450,812.44,451,811.51,451.75Z" transform="translate(-316.36 -376.75)"/></svg>