<svg id="Layer_1" data-name="Layer 1" xmlns="http://www.w3.org/2000/svg" xmlns:xlink="http://www.w3.org/1999/xlink" width="600" height="392.56" viewBox="0 0 443.36 392.56">
  <defs>
    <style>
      .cls-1 {
        fill: url(#linear-gradient);
      }

      .cls-2 {
        fill: url(#linear-gradient-2);
      }

      .cls-3 {
        fill: url(#linear-gradient-3);
      }
        
        .cls-3{
                     -webkit-transform-origin: 50% 50% 0;
                  -webkit-animation: dash .5s ease-out alternate infinite;
                      
              }
                                   
              @-webkit-keyframes dash {
                0%{transform: scale(.8);}
                50%{transform: scale(.8);}
                75%{transform: scale(.8);}
                100%{transform: scale(.9) scaleX(1) scaleY(.8);}}
        
        
    </style>
    <linearGradient id="linear-gradient" x1="-613" y1="50" x2="-613" y2="50" gradientUnits="userSpaceOnUse">
      <stop offset="0" stop-color="#6fc"/>
      <stop offset="0.99" stop-color="#6fc" stop-opacity="0.5"/>
    </linearGradient>
    <linearGradient id="linear-gradient-2" x1="-390" y1="248" x2="-390" y2="248" xlink:href="#linear-gradient"/>
    <linearGradient id="linear-gradient-3" x1="242.32" y1="14.27" x2="242.32" y2="406.83" gradientUnits="userSpaceOnUse">
      <stop offset="0" stop-color="#6fc"/>
      <stop offset="1" stop-color="#6fc" stop-opacity="0.5"/>
    </linearGradient>
  </defs>
  <title>heartIcon</title>
  <path class="cls-1" d="M-613,50" transform="translate(-20.64 -14.27)"/>
  <path class="cls-2" d="M-390,248" transform="translate(-20.64 -14.27)"/>
  <path class="cls-3" d="M429.93,44C383.28-.16,305.52,5.54,257.13,56.66L242.32,72.3,227.51,56.66C179.12,5.54,101.36-.16,54.72,44S9.5,166.11,57.89,217.23l23.63,25L234,403.23a11.52,11.52,0,0,0,16.73,0l152.44-161,23.63-25C475.15,166.11,476.57,88.15,429.93,44Z" transform="translate(-20.64 -14.27)"/>
</svg>
