<svg id="Layer_1" data-name="Layer 1" xmlns="http://www.w3.org/2000/svg" viewBox="0 0 2584.8153 556.356"><defs><style>.cls-1{fill:#222;}.cls-2{fill:#269d95;}.cls-3{fill:#268286;}.cls-4{fill:#2fb8ad;}.cls-5{fill:#2ed8c2;}.cls-6{fill:#309a9c;}.cls-7{fill:#30dcc6;}.cls-8{fill:#22ab9b;}.cls-9{fill:#2ed3bf;}.cls-10{fill:#2cbbae;}.cls-11{fill:#25c1ac;}.cls-12{fill:#20a490;}.cls-13{fill:#2c858f;}.cls-14{fill:#2c8690;}.cls-15{fill:#219488;}.cls-16{fill:#31ceb8;}.cls-17{fill:#2bc4b4;}.cls-18{fill:#1da08a;}.cls-19{fill:none;isolation:isolate;}</style></defs><title>logofull</title><g id="Artboard_1" data-name="Artboard 1"><path id="ID_" data-name="ID " class="cls-1" d="M24.231,514.918v67.461H214.48V514.918H158.524V110.541H214.48V43.08H24.231v67.461H80.186V514.918Zm224.568,0v67.461H437.555q83.934,0,138.21-11.437T669.4,530.427q39.3531-29.079,63.6-88.01t24.248-138.8q0-70.168-25.18-125.035T664.735,92.317q-42.159-31.4-87.1-40.321T449.493,43.08H248.8v67.461h70.5V514.918H248.799ZM397.641,110.541h44.391q91.015,0,134.853,14.926t72,63.778q28.161,48.851,28.164,119.026,0,58.936-17.16,102.354t-44.764,64.941Q587.5109,497.084,547.415,506t-108.74,8.917H397.641Z" transform="translate(-24.231 -27.171)"/><path id="ELGIN_" data-name="ELGIN " class="cls-1" d="M1216.9992,550.3h198.0252a7.0383,7.0383,0,0,0,7.2369-6.8212V511.4306a7.0383,7.0383,0,0,0-7.2369-6.8212H1269.4057a7.0383,7.0383,0,0,1-7.2369-6.8212v-97.76a7.0383,7.0383,0,0,1,7.2369-6.8212h135.3986a7.0383,7.0383,0,0,0,7.2369-6.8212V354.0812a7.0383,7.0383,0,0,0-7.2369-6.8212H1269.4057a7.0383,7.0383,0,0,1-7.2369-6.8212V244.7334a7.0383,7.0383,0,0,1,7.2369-6.8212h140.6385a7.0383,7.0383,0,0,0,7.2369-6.8212V199.0431a7.0383,7.0383,0,0,0-7.2369-6.8212h-193.045a7.0383,7.0383,0,0,0-7.2369,6.8212V543.4785A7.0383,7.0383,0,0,0,1216.9992,550.3Zm256.9663.5139h209.9821a7.0383,7.0383,0,0,0,7.2369-6.8212V510.9157a7.0383,7.0383,0,0,0-7.2369-6.8212H1533.6089a7.0383,7.0383,0,0,1-7.2369-6.8212V199.0438a7.0383,7.0383,0,0,0-7.2369-6.8212h-37.9327a7.0383,7.0383,0,0,0-7.2369,6.8212v351.77Zm460.8978-130.91h63.25a7.0383,7.0383,0,0,1,7.2369,6.8212v62.9336a6.8713,6.8713,0,0,1-4.98,6.4811h0q-43.767,14.1192-75.2,14.1172-64.7231,0-105.86-38.7592t-41.14-99.8511q0-58.2662,41.14-98.3112T1920.45,233.2924q59.1643,0,119.21,31.3558c4.8286,2.5215,10.7558-.7491,10.7558-5.9522V222.63a6.8377,6.8377,0,0,0-4.3918-6.2736q-39.5077-16.0021-65.8277-22.2074a255.2649,255.2649,0,0,0-58.6931-6.5458q-84.9,0-141.2328,53.3908t-56.3329,133.7329q0,76.236,54.3662,128.2153t145.2928,51.9786q64.4369,0,129.8483-26.9469a6.7992,6.7992,0,0,0,4.3043-6.24v-140.7a7.0383,7.0383,0,0,0-7.2369-6.8212H1942.1a7.0383,7.0383,0,0,0-7.2369,6.8212v38.8691Zm199.9259,130.91h45.1627a7.0383,7.0383,0,0,0,7.2369-6.8212V199.0438a7.0383,7.0383,0,0,0-7.2369-6.8212h-37.9258a7.0383,7.0383,0,0,0-7.2369,6.8212v351.77Zm424.4779-80.074L2314.6112,194.6709a7.4215,7.4215,0,0,0-5.5541-2.4483H2277.225a7.0383,7.0383,0,0,0-7.2369,6.8212V543.9924a7.0383,7.0383,0,0,0,7.2369,6.8212h34.7859a7.0383,7.0383,0,0,0,7.2369-6.8212V293.45c0-6.376,8.4547-9.2663,12.7911-4.3728L2561.81,548.3652a7.4215,7.4215,0,0,0,5.5542,2.4484h34.4449a7.0383,7.0383,0,0,0,7.2369-6.8212V199.0438a7.0383,7.0383,0,0,0-7.2369-6.8212h-35.3058a7.0383,7.0383,0,0,0-7.2369,6.8212V470.74Z" transform="translate(-24.231 -27.171)"/><path id="C" class="cls-1" d="M1053.99,470.123q-49.2449,40.128-109.3,40.128-73.119,0-126.46-57.769T764.884,303.6q0-88.779,49.8-146.941t127.392-58.156q51.486,0,98.1,28.885,46.6351,28.887,69.02,81.612h67.14V35.7H1109.2V84.939q-69.39-57.766-171.227-57.768-115.269,0-186.891,75.991T679.459,307.48q0,117.093,71.25,196.567t189.129,79.48q89.9,0,159.1-49.432t91.95-139.381l-67.52-39.158Q1103.225,430,1053.99,470.123Z" transform="translate(-24.231 -27.171)"/><path class="cls-2" d="M465.78,343.1583c-5.7955-1.2917-7.9943,4.2282-11.8959,6.4652-3.4715,1.99-6.3651,4.9887-9.5137,7.5421-2.5369,1.0052-4.3452,4.3476-7.7972,2.43-.8911-1.7944-.3369-3.6043.0436-5.3645,5.8238-26.9376,11.3875-53.93,16.94-80.9238a5.0723,5.0723,0,0,1,1.4114-3.1057c6.8569,6.2888,8.9761,5.8162,16.084.8282,21.03-14.7576,42.5032-28.9086,64.6569-41.9116a540.4351,540.4351,0,0,1,59.17-30.213c5.2415-2.2642,10.6782-4.0762,16.0252-6.0959,12.8845,6.1338,25.2722,13.2422,38.1262,19.4347,2.9418,1.4173,5.6405,3.393,8.9535,3.9781,1.2791,1.3729,1.5341,3.1362,2.0912,4.85,2.6608,8.189,2.7252,8.0953-5.09,10.06-14.8027,3.7219-28.8849,9.5029-42.9684,15.2576-12.6617,5.1736-24.7714,11.53-36.861,17.8652a453.2,453.2,0,0,0-39.37,23.2971q-12.3155,8.1334-24.6686,16.21c-6.0016,3.9452-6.03,4.28-.6821,8.7448,1.14.9518,2.3307,1.8426,3.4982,2.7616-.0427,2.955-2.5905,3.7183-4.5068,4.761-12.5723,6.8412-24.6758,14.4843-37.12,21.5417C470.2861,342.7175,468.3068,344.0732,465.78,343.1583Z" transform="translate(-24.231 -27.171)"/><path class="cls-3" d="M454.9686,270.2012c-.326,10.1644-3.5748,19.7993-5.5024,29.6653-3.9249,20.0885-8.29,40.0911-12.4735,60.1291-.2325.0674-.465.1347-.6978.2037-1.9866-.5051-2.7828-2.2517-3.7619-3.7384-6.8141-10.3463-13.3256-20.89-20.3619-31.0924-.9188-1.3322-2.0114-2.7072-1.2593-4.5439,2.1871-3.6718,6.0811-5.4779,9.0686-8.2766,2.69-2.52,2.4688-4.8462-.2584-7.092a456.4455,456.4455,0,0,1-34.1689-31.808c-5.61-5.6746-11.1251-11.4423-16.6831-17.168-5.9056-6.5258-10.5635-13.9395-15.2667-21.33-12.4543-19.5708-25.387-38.8317-37.8839-58.3751-1.313-2.0534-3.2059-4.1205-.6634-6.5941a106.9515,106.9515,0,0,1,22.8723-15.986c3.5181-1.8121,7.5467-1.9269,10.1942,1.8471,6.6931,9.5411,14.2048,18.4112,21.539,27.45a609.3536,609.3536,0,0,0,53.0854,57.47c9.6606,9.196,19.1982,18.6028,29.865,26.71A19.74,19.74,0,0,1,454.9686,270.2012Z" transform="translate(-24.231 -27.171)"/><path class="cls-4" d="M570.9364,352.2145c8.1494,3.1873,15.2279,8.4391,23.1818,12.0083,20.62,9.253,41.2728,18.4115,63.2847,23.9931a21.04,21.04,0,0,1,4.2253,1.33c1.8741.933,3.96,1.6226,2.1388,4.7489-1.5238,2.6151-2.0278,5.8243-2.9834,8.7705-.4088,2.2742-1.917,3.75-3.61,5.149-8.68,7.1762-17.7117,13.9142-26.3623,21.1244-2.2593,1.883-4.5838,1.3353-7.0067.7614-17.5013-5.7775-34.3162-13.1628-50.9417-21.1-30.1862-14.4117-58.374-32.119-85.8888-50.9933,5.3993-2.6263,11.3231-1.8825,17-2.4239,20.4745-1.9522,41.05-2.35,61.5734-3.58C567.3888,351.8928,569.1229,352.8424,570.9364,352.2145Z" transform="translate(-24.231 -27.171)"/><path class="cls-5" d="M937.0088,332.0262q7.801-5.9524,15.6039-11.9023c3.9124-2.9728,7.9739-5.7663,11.7234-8.9307,3.0394-2.5652,1.476-5.0082-.9731-7.0047-6.3727-5.1954-12.6951-10.46-19.2124-15.4686-6.5994-5.072-13.4086-9.871-20.1259-14.79-3.3545-8.3083-3.9417-17.226-5.6417-25.8953-.38-1.9391,1.0891-2.9415,2.8168-3.4539,2.1372-.45,3.9.56,5.62,1.5647,31.7455,18.5376,63.8673,36.4209,95.5846,55.0064,4.6863,2.7461,10.13,4.3724,13.6823,8.8806a2.3383,2.3383,0,0,1-1.13,2.5724c-6.7872,5.1212-12,11.9891-18.604,17.2005-5.3379,4.2124-9.9325,9.1647-15.1774,13.4623-10.4419,8.556-20.71,17.3059-31.3785,25.6055-6.77,5.2668-13.9392,9.9347-20.7155,15.16-3.1952,1.0386-3.09-1.5991-3.5033-3.33-3.0906-12.9411-5.8131-25.9636-8.0605-39.0766C936.9789,338.4843,934.7463,335.3443,937.0088,332.0262Z" transform="translate(-24.231 -27.171)"/><path class="cls-6" d="M436.9927,359.9956c2.8778.1476,4.4329-3.1526,7.3778-2.83-7.5038,6.9178-15.0547,13.7854-22.501,20.7646-11.5148,10.7926-22.2361,22.3723-32.74,34.1215-11.9286,13.3424-23.4151,27.0817-35.0121,40.7178-2.1149,2.4869-3.8455,5.3017-5.7411,7.9738-3.0225,4.2606-7.0968,5.8139-12.7418,2.3955-9.4391-5.7161-17.7644-12.9288-26.6683-19.36a7.1831,7.1831,0,0,1-1.5716-10.3648c8.47-11.5015,17.07-22.8847,26.4274-33.718,7.21-8.347,14.587-16.5356,21.9123-24.7748a31.4657,31.4657,0,0,1,8.1015-2.3791c21.296-3.71,42.5513-7.6461,63.7911-11.6648,3.0912-.5849,6.1611-1.3015,9.3433-.8948Z" transform="translate(-24.231 -27.171)"/><path class="cls-7" d="M937.0088,332.0262c3.0442,15.2971,5.5574,30.71,9.5667,45.7941.5442,2.0471-1.2256,5.3714,2.5056,6.2128a367.9008,367.9008,0,0,1-55.3427,32.2044,299.9818,299.9818,0,0,1-49.7656,18.6512c-1.3456-1.54-.6426-3.136-.0386-4.6578,7.3839-18.6019,14.4968-37.3091,21.8037-55.9409a9.1626,9.1626,0,0,1,1.2631-2.13c19.0732-8.9354,37.8347-18.4245,55.1829-30.4943C927.02,338.3013,932.0615,335.2314,937.0088,332.0262Z" transform="translate(-24.231 -27.171)"/><path class="cls-8" d="M862.0416,238.9749c-11.5168-4.21-22.8727-8.8488-34.6713-12.2943a248.874,248.874,0,0,0-36.2783-8.0029c-2.562-.3481-4.9691-1.5813-7.7009-1.337-2.3066.2063-2.7317-.5389-1.7107-2.9261,5.0638-11.8392,9.681-23.8705,14.8094-35.6806,4.163-9.5872,4.3381-9.1931,14.9-7.53a139.4307,139.4307,0,0,1,19.7855,4.7179c-1.4028,1.5257-.2441,2.1972.9076,3.0321,22.3248,16.1847,44.58,32.4658,67.0463,48.4548,5.0089,3.5647,9.9515,7.2293,14.72,11.1053,1.209.9826,4.1948,2.1432,1.0331,4.4167-3.0554.8077-6.1836.2386-9.2659.5574-13.0566-1.499-26.2288-1.6685-39.2546-3.4871A11.4649,11.4649,0,0,1,862.0416,238.9749Z" transform="translate(-24.231 -27.171)"/><path class="cls-9" d="M867.001,372.16c-2.2394,9.3349-6.2262,18.0468-9.5276,27.0082-4.401,11.9456-9.8136,23.5076-13.5006,35.72-11.71,4.09-23.9952,5.8619-35.9695,8.8883-2.194.5545-3.2451-.756-4.0858-2.6717-6.24-14.2214-12.62-28.3816-18.8346-42.6145-1.9965-4.5729,2.2584-3.741,4.2571-4.1425,7.6965-1.5463,15.5466-2.3931,23.1763-4.1929A341.144,341.144,0,0,0,867.001,372.16Z" transform="translate(-24.231 -27.171)"/><path class="cls-10" d="M570.9364,352.2145a31.8406,31.8406,0,0,1-9.6353,1.81c-16.206.6154-32.4268,1.04-48.6053,2.0987-8.5717.5611-17.0864,2.0374-25.7214,1.8838q-10.5974-7.4249-21.1945-14.8494c7.7219-2.8061,14.3768-7.581,21.3108-11.7885,8.9207-5.413,18.5028-9.7264,26.8428-16.1011,17.3748,12.1421,34.8961,24.0527,53.5146,34.2548A27.5171,27.5171,0,0,1,570.9364,352.2145Z" transform="translate(-24.231 -27.171)"/><path class="cls-11" d="M1036.0867,310.0327q-27.2487-15.4817-54.4944-30.9682-29.82-16.9925-59.6061-34.0441c-1.7124.2505-3.0543-.1165-3.4491-2.0658a3.5908,3.5908,0,0,1,2.0962-2.5762c6.8621-4.2545,13.9948-8.0443,20.9323-12.17a2.8356,2.8356,0,0,1,2.8134-.3451c6.9525,3.0719,12.6648,8.019,18.6964,12.4631,13.4738,9.9274,26.2474,20.6965,38.9786,31.57,11.1769,9.5455,21.3961,20.0789,32.5006,29.671C1036.954,303.6394,1036.5668,307.0189,1036.0867,310.0327Z" transform="translate(-24.231 -27.171)"/><path class="cls-12" d="M915.9951,242.006c-8.6747-7.969-18.7092-14.1265-28.1667-21.0458-19.5214-14.2821-39.1821-28.3739-58.7922-42.5345-.542-.3913-1.162-.6744-1.87-1.0791,1.4375-1.83,2.8671-1.14,4.01-1.4243,10.4142,1.6344,20.1984,5.5122,30.09,8.8548a301.6132,301.6132,0,0,1,43.2833,18.7466c7.9182,4.1476,16.1432,7.94,23.27,13.5205-3.3289,3.48-2.9246,8.2764-4.3352,12.43-.9,2.6493-1.4056,5.4334-2.0682,8.1611a6.3193,6.3193,0,0,1-4.0165,4.6682A1.877,1.877,0,0,1,915.9951,242.006Z" transform="translate(-24.231 -27.171)"/><path class="cls-13" d="M436.97,359.9825c-8.8914,3.2043-18.3141,3.9783-27.4891,5.8337-16.5209,3.3407-33.1622,6.0879-49.7622,9.0318a24.6835,24.6835,0,0,1-3.9844.0732c15.5-15.63,30.8806-31.3817,46.6171-46.77a83.6689,83.6689,0,0,1,8.5607-7.3268C419.61,333.8693,427.3952,347.5212,436.97,359.9825Z" transform="translate(-24.231 -27.171)"/><path class="cls-14" d="M315.0562,170.1806c-1.1531,4.988,3.0126,7.7527,5.0712,11.2071,5.81,9.7489,12.2009,19.1526,18.41,28.6618q11.3858,17.4376,22.842,34.8292c2.5215,3.85,4.9951,7.7323,7.4907,11.6006-8.9431-7.8979-16.247-17.3166-24.3073-26.0356-6.4033-6.9265-12.6439-13.9753-18.6367-21.242-6.3737-7.7284-12.5944-15.5858-18.7443-23.4939-2.1425-2.7551-1.5211-8.6572,1.3688-10.25C311.1223,174.0409,312.5495,171.4944,315.0562,170.1806Z" transform="translate(-24.231 -27.171)"/><path class="cls-15" d="M657.9846,216.2217c-2.9283,2.2493-5.1625-.6328-7.0973-1.5836-12.6492-6.2159-25.0495-12.9377-37.5449-19.4677a4.645,4.645,0,0,1-2.4373-2.3615c10.0773-4.6281,20.672-7.7857,31.2827-10.8687,1.4323-.4162,2.8412-.4528,3.686,1.9558C649.6815,194.7516,653.9086,205.46,657.9846,216.2217Z" transform="translate(-24.231 -27.171)"/><path class="cls-16" d="M623.8049,430.1008c3.6846.4864,5.9933-1.6438,8.6394-3.8578,8.24-6.8944,16.7531-13.4687,25.2815-20.0086a32.118,32.118,0,0,0,3.0579-3.1689c-1.0967,7.2739-4.4083,13.9139-6.01,21.0528-.818,3.6451-2.0729,7.1926-3.1416,10.7809-.594,1.9943-1.8259,3.3208-4.0056,2.6592C639.6647,435.1421,631.7421,432.5972,623.8049,430.1008Z" transform="translate(-24.231 -27.171)"/><path class="cls-17" d="M862.0416,238.9749c14.72.0408,29.3193,1.8374,43.96,3.0325,3.5322,1.0881,7.1552.233,10.7252.5a1.76,1.76,0,0,1,1.4319.4185,1.8559,1.8559,0,0,1-.9219,1.9276c-5.7075,3.55-11.8586,6.2569-17.8446,9.28-1.4478.7313-2.941,1.4357-4.6583,1.0144q-9.83-4.8949-19.6624-9.7862C870.7372,243.2151,866.3855,241.1027,862.0416,238.9749Z" transform="translate(-24.231 -27.171)"/><path class="cls-18" d="M917,242.01a8.57,8.57,0,0,0,3.3066-5.1639c1.2092-5.9528,3.1176-11.7611,4.4177-17.6992.46-2.1,1.0671-2.85,3.0951-2.1023a66.6732,66.6732,0,0,1,16.5594,10.8191c-8.2515,5.41-17.3591,9.3926-25.3619,15.2168a.5973.5973,0,0,1-1.017-.0755l.031-.0447C917.6732,242.6585,917.0879,242.6038,917,242.01Z" transform="translate(-24.231 -27.171)"/><path class="cls-7" d="M918,243.0047q.5081.0369,1.0166.0746,1.4854.9711,2.97,1.9408c-2.1293,1.012-2.57,2.3507-2.104,4.8637,1.481,7.9939,3.9288,15.8349,4.1422,24.0464a111.6554,111.6554,0,0,1-14.7561-9.951,165.0047,165.0047,0,0,1,7.7363-19.9743Z" transform="translate(-24.231 -27.171)"/><path class="cls-9" d="M917.0049,244.005a48.82,48.82,0,0,1-7.7366,19.9743,71.44,71.44,0,0,1-14.5343-8.8312Z" transform="translate(-24.231 -27.171)"/><path class="cls-11" d="M917,242.01q.5153.4756,1.0308.9508c-4.0016-.4186-8.1567,1.0973-12.0293-.9531l9.9937-.0014Z" transform="translate(-24.231 -27.171)"/><path class="cls-19" transform="translate(-24.231 -27.171)"/><path id="EN" class="cls-1" d="M1205.8894,175.7433h72.6v-15.934h-54.7v-38.851h51.2v-16.024h-51.2V66.7993h52.99V50.8653h-70.89Zm191.03-27.746-84.33-97.132h-14.5v125.057h16.83V79.6093l83.61,96.313h15.4V50.8653h-17.01Z" transform="translate(-24.231 -27.171)"/></g></svg>