<svg id="Layer_1" data-name="Layer 1" xmlns="http://www.w3.org/2000/svg" viewBox="0 0 488 491"><defs><style>.cls-1{fill:#6f7277;stroke:#79f7d0;stroke-linecap:round;stroke-linejoin:round;stroke-width:16px;}.cls-2{fill:#aef4de;stroke:#fff;stroke-miterlimit:10;stroke-width:1.5px;}.cls-3,.cls-5,.cls-6{fill:#fff;}.cls-3{opacity:0.51;}.cls-4{fill:#78f6cf;}.cls-6{opacity:0.61;}</style></defs><title>team5</title><path class="cls-1" d="M250,13" transform="translate(-6 -5)"/><path class="cls-2" d="M731.18,330.77" transform="translate(-6 -5)"/><path class="cls-2" d="M754.57,308.73" transform="translate(-6 -5)"/><path class="cls-1" d="M250,13" transform="translate(-6 -5)"/><path class="cls-1" d="M245,13" transform="translate(-6 -5)"/><path class="cls-1" d="M245,13" transform="translate(-6 -5)"/><polygon class="cls-1" points="8 126.75 8 364.25 244 483 480 364.25 480 126.75 244 8 8 126.75"/><path class="cls-3" d="M374,258H281a40.12,40.12,0,0,0-40,40h0a40.12,40.12,0,0,0,40,40h72.41l29,33.74-3.48-34.06A40.13,40.13,0,0,0,414,298h0A40.12,40.12,0,0,0,374,258Z" transform="translate(-6 -5)"/><path class="cls-4" d="M373,253H280a40.12,40.12,0,0,0-40,40h0a40.12,40.12,0,0,0,40,40h72.41l29,33.74-3.48-34.06A40.13,40.13,0,0,0,413,293h0A40.12,40.12,0,0,0,373,253Z" transform="translate(-6 -5)"/><circle class="cls-5" cx="297.34" cy="286.92" r="8.08"/><circle class="cls-5" cx="319.81" cy="286.42" r="8.08"/><circle class="cls-5" cx="342.63" cy="286.71" r="8.08"/><path class="cls-6" d="M273.5,148h-128a69.2,69.2,0,0,0-69,69h0a69.2,69.2,0,0,0,67.74,69l-7.92,64.53L194,286H273.5a69.2,69.2,0,0,0,69-69h0A69.2,69.2,0,0,0,273.5,148Z" transform="translate(-6 -5)"/><path class="cls-4" d="M273.5,143h-128a69.2,69.2,0,0,0-69,69h0a69.2,69.2,0,0,0,67.74,69l-7.92,64.53L194,281H273.5a69.2,69.2,0,0,0,69-69h0A69.2,69.2,0,0,0,273.5,143Z" transform="translate(-6 -5)"/><circle class="cls-5" cx="158.42" cy="207.17" r="16.26"/><circle class="cls-5" cx="203.62" cy="206.17" r="16.26"/><circle class="cls-5" cx="249.56" cy="206.74" r="16.26"/></svg>