<svg id="Layer_1" data-name="Layer 1" xmlns="http://www.w3.org/2000/svg" viewBox="0 0 488 491"><defs><style>.cls-1{fill:#6f7277;stroke:#79f7d0;stroke-linecap:round;stroke-linejoin:round;stroke-width:16px;}.cls-2{fill:#79f7d0;}.cls-3{fill:#fff;}.cls-4{fill:#b0f7de;}.cls-5{fill:#00fa02;}</style></defs><title>Team1</title><polygon class="cls-1" points="8 126.75 8 364.25 244 483 480 364.25 480 126.75 244 8 8 126.75"/><rect class="cls-2" x="66.73" y="228.42" width="345.24" height="10.25" rx="5.12" ry="5.12" transform="translate(-94.11 299.4) rotate(-56)"/><rect class="cls-3" x="69.5" y="115.31" width="118.07" height="153.49" rx="11.39" ry="11.39"/><rect class="cls-2" x="73.79" y="115.85" width="110.55" height="149.19" rx="10.12" ry="10.12"/><path class="cls-4" d="M89.45,254.65v27.87c0,.52,1,.68,1.27.2l5.48-8.82a.79.79,0,0,1,1.2,0l4.73,7.3c.3.47,1.26.31,1.26-.21V254.65c0-.27-.3-.48-.66-.48H90.12C89.75,254.16,89.45,254.38,89.45,254.65Z" transform="translate(-6 -2)"/><rect class="cls-3" x="69.5" y="112.09" width="110.55" height="150.27" rx="9.86" ry="9.86"/><rect class="cls-2" x="119.41" y="139.46" width="14.49" height="90.7" rx="5.49" ry="5.49"/><rect class="cls-2" x="127.26" y="134.7" width="10.37" height="62.37" rx="3.93" ry="3.93" transform="translate(-39.44 296.33) rotate(-90)"/><path class="cls-5" d="M240.47,363.13" transform="translate(-6 -2)"/><path class="cls-2" d="M261.25,273l0,.25c12.6-6.76,27.44-7.8,41.74-7.56,8.1.13,14.81,4.11,21,9.2-.15-.12-.29-9.07-.32-10a51.31,51.31,0,0,0-1-11.09,27.41,27.41,0,0,0-22.16-20.09c-5.64-.81-11.38.2-17,1.24-3.61.67-7.35,1.42-10.33,3.57-2.44,1.76-4.16,4.31-5.82,6.81C261.28,254.53,260.48,262.25,261.25,273Z" transform="translate(-6 -2)"/><path class="cls-3" d="M349.33,339.35,345.57,337H343.7l-.35-8.8a2.12,2.12,0,0,1-1.52-1.12c-3.58-6.32-3.9-13.82-4.88-20.85-.76-5.4-2.12-11.27-4.84-16-3-5.21-8.5-7.89-14-9.76-7.26-2.48-15-3.49-22.48-4.94-5.64-1.09-11.7-2.72-17.49-1.92A2.11,2.11,0,0,1,276.6,275c-6.22,1.67-12.52,3.51-18.1,6.8a31.59,31.59,0,0,0-10.77,10.53,2.43,2.43,0,0,1,2.38,4,17.82,17.82,0,0,0-1.23,1.55,6.82,6.82,0,0,0,.92,1.08c2.2,2.08-1.12,5.39-3.32,3.32l0,0c-1.89,4.33-2.88,9.19-4.6,13.51a126.92,126.92,0,0,0,1.36,17.09,2.54,2.54,0,0,1-3.78,2.58c0,.24.07.47.11.71l-3.75,2.35c-1.95,1.22-3.47,4-4.47,6-1.55,3.08-1.45,7.11-1.27,10.45a15,15,0,0,0,4.36,10.39,23,23,0,0,0,7.75,5.18c1.2.49,2.94.61,3.75,1.61s.77,2.72,1.16,3.94a60.39,60.39,0,0,0,21.87,30.11c6.64,4.8,14.4,8.24,22.56,8.93q1.5.13,2.93.11c10.75-.12,21.3-5.58,28.92-12.9a62.37,62.37,0,0,0,14.27-21.67c1.15-2.83,2.14-6.32,4.44-8.45,3-2.8,6.53-4.19,8.86-7.81a24.73,24.73,0,0,0,3.65-12.3C354.81,346.56,352.73,343.31,349.33,339.35Z" transform="translate(-6 -2)"/><path class="cls-2" d="M241.74,341.23a2.49,2.49,0,0,0,.61.27,4,4,0,0,0,1.52,0c4.62-.5,10.45-1.46,14.6-3.51,3.75-1.86,6.56-5.09,9.27-8.24a25.31,25.31,0,0,0,2.69-3.53c1.07-1.81,2.68-11.49,5-11.46,1.06,0,6.17,9.07,7.28,10.34A52.35,52.35,0,0,0,305,340.23c8.42,2.89,1.6.85,17.08,4.13,6,1.26,35.47-11.3,32.38-14.08,0,0-11.3-2-11.26-8,.06-9.86.95-20.41-4.16-29.08-6.28-10.67-17.71-17.88-29.91-20.87s-25.13-2.08-37.37.74a42.51,42.51,0,0,0-8.65,2.77c-10.46,4.94-16.09,16-21,26.35a21.15,21.15,0,0,0-2.67,11.52c-.08,4.83-.16,9.66.09,14.49C239.73,330.88,238.64,339.34,241.74,341.23Z" transform="translate(-6 -2)"/><path class="cls-2" d="M287.86,392.58c-.27,1.24.11,1.16.66,2a6.06,6.06,0,0,0,2.08,1.93,9.25,9.25,0,0,0,11.42-.89,3.54,3.54,0,0,0,1-1.33,4.8,4.8,0,0,0,.18-2.59c-.27-.62-1.22-.19-1.69-.06a27,27,0,0,1-4.32.83,26,26,0,0,1-5.13,0C290.4,392.39,288.49,389.75,287.86,392.58Z" transform="translate(-6 -2)"/><line class="cls-2" x1="253.71" y1="347.05" x2="253.24" y2="346.11"/><line class="cls-2" x1="257.46" y1="348.46" x2="255.59" y2="347.99"/><path class="cls-2" d="M353.08,387.06" transform="translate(-6 -2)"/><path class="cls-2" d="M269.2,351.2c-2.91-1.48-6.22-1.23-8.56-3.11,1.22,1.17,2.55,2.8,4.09,3.39C266.89,352.54,269.26,352.71,269.2,351.2Z" transform="translate(-6 -2)"/><path class="cls-2" d="M263.93,352.34c1.61-.81,3.12-.45,4.83-1,2.6-.9,6.14-1.13,8.56.3.68.4,2.38,1.91,1.62,1.69-6.56-1.88-10.57,0-13.13,0S266.46,352.46,263.93,352.34Z" transform="translate(-6 -2)"/><path class="cls-2" d="M267.32,351.67c-2.91-1.48-6.22-1.23-8.56-3.11,1.22,1.17,2.55,2.8,4.09,3.39C265,353,267.38,353.18,267.32,351.67Z" transform="translate(-6 -2)"/><path class="cls-2" d="M267,352.23c-3-1.21-6.31-.66-8.81-2.32,1.32,1.05,2.79,2.55,4.38,3C264.79,353.77,267.16,353.73,267,352.23Z" transform="translate(-6 -2)"/><path class="cls-2" d="M271.54,351.2c-2.91-1.48-6.22-1.23-8.56-3.11,1.22,1.17,2.55,2.8,4.09,3.39C269.24,352.54,271.6,352.71,271.54,351.2Z" transform="translate(-6 -2)"/><path class="cls-2" d="M317.83,350.26c2.91-1.49,6.22-1.25,8.55-3.13-1.22,1.17-2.54,2.8-4.08,3.41C320.13,351.6,317.77,351.78,317.83,350.26Z" transform="translate(-6 -2)"/><path class="cls-2" d="M323.09,351.38c-1.61-.81-3.12-.44-4.84-1-2.6-.89-6.14-1.11-8.56.32-.68.4-2.38,1.92-1.61,1.69,6.56-1.9,10.57,0,13.13,0S320.56,351.52,323.09,351.38Z" transform="translate(-6 -2)"/><path class="cls-2" d="M319.7,350.73c2.91-1.49,6.22-1.25,8.55-3.13-1.22,1.17-2.54,2.8-4.08,3.41C322,352.06,319.65,352.24,319.7,350.73Z" transform="translate(-6 -2)"/><path class="cls-2" d="M320.07,351.28c3-1.22,6.3-.68,8.8-2.35-1.32,1.06-2.78,2.56-4.37,3C322.24,352.82,319.87,352.78,320.07,351.28Z" transform="translate(-6 -2)"/><path class="cls-2" d="M315.48,350.27c2.91-1.49,6.22-1.25,8.55-3.13-1.22,1.17-2.54,2.8-4.08,3.41C317.79,351.61,315.42,351.78,315.48,350.27Z" transform="translate(-6 -2)"/><path class="cls-3" d="M441,231.24,437.41,229h-1.79l-.35-8.8a5.75,5.75,0,0,1-.6-1.87,27.26,27.26,0,0,1,.86-10.53c.33-1.26.78-2.56,1.19-3.87a3.85,3.85,0,0,1-4.2-1.07,4.59,4.59,0,0,1-1.17.14,14.22,14.22,0,0,1-12-6.72c-1.55-2.31-2.5-5-3.72-7.55-1.43-1.86-2.82-3.81-4.25-5.69-7.36-6.32-20.8-7-29.58-6.25-10.87.94-18.15,7.69-23.53,16.61-4,6.69-9.64,16.66-18.58,16.64.09,3.1.49,6.28.67,9.63a5.4,5.4,0,0,1-.07,1.22c.4,2.65-1.06,5.62-4.36,5.85.07.46.13.92.21,1.37l-3.59,2.24c-1.86,1.16-3.32,3.85-4.27,5.75-1.48,2.94-1.39,6.79-1.21,10A14.33,14.33,0,0,0,331.2,256a22,22,0,0,0,7.41,5c1.14.46,2.81.58,3.58,1.54s.73,2.6,1.11,3.77A57.69,57.69,0,0,0,364.2,295c6.34,4.58,13.76,7.87,21.56,8.53,1,.08,1.89.11,2.8.1,10.27-.11,20.34-5.33,27.63-12.33a59.59,59.59,0,0,0,13.64-20.71c1.1-2.7,2-6,4.24-8.07,2.89-2.68,6.24-4,8.47-7.46A23.63,23.63,0,0,0,446,243.34C446.23,238.13,444.25,235,441,231.24Z" transform="translate(-6 -2)"/><path class="cls-3" d="M347.16,192.34c1.3-2,2.49-4.1,3.74-6.15a48.71,48.71,0,0,0-6.76,8.52c-.12.8-.21,1.61-.28,2.42A43.71,43.71,0,0,0,347.16,192.34Z" transform="translate(-6 -2)"/><path class="cls-2" d="M382.73,283.11c.61.51,1.86.53,3.17.35,1.64-.22,2-.11,3.67-.36,11.72-1.82,7.45-1.2,10.44-1.94,6.2-1.52,11.82-4.17,15.57-7.69a.63.63,0,0,0,.19-.81c-.4-.67-1.73-.42-2.6-.1-3.36,1.27-6.22,3-9.55,4.31a69.87,69.87,0,0,1-10.91,2.9c-3.5.73-8.19,2.43-10.21,2.67C382.19,282.48,382.59,283,382.73,283.11Z" transform="translate(-6 -2)"/><path class="cls-2" d="M436.61,219.21c.86-9.69,1.27-19.42,1.91-29.83l-7.31,1.69,1.68-29.68c-9.39,7.17-18.12,9.43-27.6,4l1.76-4.83c-6.45-.41-13.58,7.92-17.37-3.22-4.91,5.61-4.91,5.61-12.38,3.06-11.4-3.89-20.13-1.62-25.47,6.69l11.22-.71.44,3L342,173.79c4.4,13.91-12,10.3-13.35,18.79l8.66,3.43c-.38,5.57-.82,10.3-1,15a126.33,126.33,0,0,0-.06,15.11,15.39,15.39,0,0,1-.09,3.76A30.14,30.14,0,0,1,338,236c.27,1.31.6,2.59,1,3.85,4.22-2.54,5.43-5.74,5.59-10.33a7.86,7.86,0,0,1,0-.84c2.69-18.66,7.87-22.12,25.91-17.38.7.18,1.42.35,2.14.49,5.36,1.6,10.86,3.09,16.43,2.7a24.9,24.9,0,0,0,11-3.53c.92-.55,3.39-1.87,4.06-3.12,12.78-5.41,22.65.55,23.86,15,.48,5.77,1.21,9.79,7.13,13.11.23.13.45.26.66.41.08-.07.18-.13.26-.2a53.15,53.15,0,0,1,.67-10.74A22,22,0,0,1,436.61,219.21ZM374,182.62l-.06.06,0-.08Z" transform="translate(-6 -2)"/></svg>