<svg id="Layer_1" data-name="Layer 1" xmlns="http://www.w3.org/2000/svg" viewBox="0 0 488 491"><defs><style>.cls-1,.cls-6{fill:#6f7277;}.cls-1{stroke:#79f7d0;stroke-linecap:round;stroke-linejoin:round;stroke-width:16px;}.cls-2{fill:#aef4de;stroke-width:1.5px;}.cls-2,.cls-3,.cls-4,.cls-5,.cls-6{stroke:#fff;stroke-miterlimit:10;}.cls-3{fill:#78f6cf;}.cls-4{fill:#afbdc4;}.cls-5{fill:#79d7ba;}.cls-6{stroke-width:0.5px;}</style></defs><title>Team4</title><path class="cls-1" d="M250,13" transform="translate(-1 -5)"/><path class="cls-2" d="M731.18,330.77" transform="translate(-1 -5)"/><path class="cls-2" d="M754.57,308.73" transform="translate(-1 -5)"/><path class="cls-1" d="M250,13" transform="translate(-1 -5)"/><path class="cls-1" d="M250,488" transform="translate(-1 -5)"/><polyline class="cls-1" points="244 8 8 126.75 8 364.25 244 483 480 364.25 480 126.75 244 8"/><path class="cls-3" d="M281.28,248.8a19.7,19.7,0,0,0,2.2,2.61,43.52,43.52,0,0,0,3.4,3.58c3,2.8,5.75,5.79,8.91,8.38,2,1.65,3.87,3.49,5.87,5.17,3.19,2.68,6.39,5.35,9.67,7.92q6.25,4.91,12.64,9.64c4,3,8.12,5.89,12.18,8.84,5.59,4,11.15,8.14,16.79,12.12,3.26,2.3,6.4,4.75,9.51,7.24a45.64,45.64,0,0,1,8.65,9.13,40.73,40.73,0,0,1,5.4,10,34.75,34.75,0,0,1,1.75,8.21,28.35,28.35,0,0,1-.55,8.38,30.51,30.51,0,0,1-4,9.87,46.1,46.1,0,0,1-8.06,10c-5.55,5.17-11.84,9-19.34,10.61a28.58,28.58,0,0,1-8.41.36,31.21,31.21,0,0,1-12.26-3.79,42.22,42.22,0,0,1-12-9.72c-4.72-5.49-8.85-11.42-13-17.31-5-7-9.87-14-14.92-20.95-4.53-6.21-9.11-12.38-14-18.35-2.8-3.46-5.58-6.94-8.53-10.28s-5.95-6.67-9-9.91c-2.05-2.16-4.31-4.08-6.37-6.21a39.14,39.14,0,0,1-4-3.35,83.21,83.21,0,0,0-13.39-9.38,33.77,33.77,0,0,0-3.46-1.74,1.62,1.62,0,0,1-1-.76c-.12-.7.41-1,.81-1.43q4.29-4.32,8.61-8.62,15.09-15.09,30.18-30.17c.44-.44.79-1.07,1.57-1,.55.25.7.8.91,1.28a66.76,66.76,0,0,0,8.11,13.27C277.79,244.63,279.61,246.65,281.28,248.8Z" transform="translate(-1 -5)"/><path class="cls-4" d="M281.28,248.8c-.88-.31-1.24-1.16-1.79-1.8a78.52,78.52,0,0,1-11.21-16.59,13.56,13.56,0,0,0-1.18-2.39,15.6,15.6,0,0,1-2.1-4.08,56.27,56.27,0,0,0-6.36-11c-.24-.31-.7-.58-.4-1.1l8.64-8a5.12,5.12,0,0,0,1.49-4,46.05,46.05,0,0,0-1.4-9.36,109.76,109.76,0,0,1-2.73-18.95c-.39-13.27,4.46-24.21,14.24-33.11a60.51,60.51,0,0,1,31.24-15.42,62.75,62.75,0,0,1,23.88.66c1.72.37,3.41.84,5.13,1.23.8.18,1.06.37.31,1.07-2.1,2-4.13,4-6.19,6q-12.68,12.41-25.37,24.81a2,2,0,0,0-.7,1.78,36.25,36.25,0,0,0,3.77,12.51,40.05,40.05,0,0,0,20.3,19.39,35.26,35.26,0,0,0,10.75,3,2.12,2.12,0,0,0,1.89-.72q15.65-15.7,31.33-31.36c.27-.27.56-.53.91-.87a72.38,72.38,0,0,1,2.19,9.72,67,67,0,0,1,.86,11.59,56,56,0,0,1-8.4,28.91,62.24,62.24,0,0,1-13.73,15.8,39.29,39.29,0,0,1-26.18,8.83c-7.18-.12-14.08-1.75-21-3.42a40.21,40.21,0,0,0-8.26-1.45,5.62,5.62,0,0,0-4.6,1.87C291.55,237.93,286.4,243.36,281.28,248.8Z" transform="translate(-1 -5)"/><path class="cls-4" d="M226.09,271.05a84.73,84.73,0,0,1,9.35,5.25,101.22,101.22,0,0,1,10,7.74,14,14,0,0,1,2.41,2.28q-7.64,8.07-15.27,16.13c-7.6,8.05-15.17,16.14-22.8,24.16q-22.2,23.32-44.27,46.76A28.06,28.06,0,0,1,144,382.48a24.24,24.24,0,0,1-24-21.14,28.57,28.57,0,0,1,7.29-23.62c.92-1,2.28-1.7,3.32-2.69q12.65-12,25.3-23.95c25.8-24.54,27.57-26.25,52.73-50.21.39-.53.71-.1.95.14,2.92,3,6.52,4.93,10.14,6.85,1.42.75,2.91,1.41,4.38,2.06A4.88,4.88,0,0,1,226.09,271.05Z" transform="translate(-1 -5)"/><path class="cls-4" d="M215.94,237.56c-5.74-5.7-11.43-11.45-17.22-17.1-9.5-9.26-18.77-18.75-28.26-28-3.13-3.07-6.2-6.21-9.38-9.23a40.66,40.66,0,0,0-5.36-3.78q-10.41-7.1-20.9-14.09a3,3,0,0,1-1.1-1.39q-6.85-15.81-13.75-31.59a.85.85,0,0,1,.23-1.12q4.56-4.52,9.08-9.08a.85.85,0,0,1,1.11-.24q16,7,32,13.92a2.07,2.07,0,0,1,.93.84c4.68,6.94,9.39,13.85,14,20.82a53.52,53.52,0,0,0,7.48,9.14c4.64,4.45,9.09,9.11,13.71,13.6,9.26,9,18.29,18.21,27.48,27.28,3.32,3.28,6.68,6.52,10,9.78.26.42-.08.67-.3.93-1.26,1.51-2.66,2.9-4,4.38-2.58,2.93-5.35,5.69-8.18,8.38-2.25,2.15-4.55,4.25-6.91,6.28C216.48,237.45,216.28,237.68,215.94,237.56Z" transform="translate(-1 -5)"/><path class="cls-5" d="M215.94,237.56c1.5-1.33,3-2.64,4.5-4,2.91-2.61,5.68-5.38,8.4-8.2,2.38-2.48,4.66-5.06,7-7.61a1.77,1.77,0,0,0,.22-.48c1-1.09,2.06-2.19,3.11-3.26a30.15,30.15,0,0,1,5.87-4.79c3.7-2.23,8.32-2.23,11.68,1.16.5.51,1,1,1.56,1.48,1,1.5,2.12,3,3.08,4.5A81.21,81.21,0,0,1,267.11,228c-.45,0-.69.36-1,.63l-39.43,39.43c-.27.27-.63.51-.63,1-5.34-2.28-10.56-4.77-15.14-8.42-.56-.44-1-1-1.55-1.49-.2-.19-.37-.47-.71-.27-.6-1.29-1.7-2.25-2.22-3.61a8,8,0,0,1,.06-6.28,23.08,23.08,0,0,1,3.17-4.93A57.53,57.53,0,0,1,215.94,237.56Z" transform="translate(-1 -5)"/><path class="cls-6" d="M143.85,348.42a11.06,11.06,0,1,1,.06,22.13c-5.66,0-11-5.2-11-10.86C132.88,353.29,137.59,348.38,143.85,348.42Z" transform="translate(-1 -5)"/></svg>