<svg xmlns="http://www.w3.org/2000/svg" xmlns:xlink="http://www.w3.org/1999/xlink" viewBox="10394.512 1470.582 74.629 68.826">
  <defs>
    <style>
      .cls-1, .cls-4, .cls-5, .cls-7, .cls-8 {
        fill: none;
      }

      .cls-1, .cls-2, .cls-3, .cls-4, .cls-5 {
        stroke: #fff;
      }

      .cls-1 {
        stroke-width: 4px;
      }

      .cls-2 {
        fill: #fff;
      }

      .cls-2, .cls-4 {
        stroke-width: 7px;
      }

      .cls-3 {
        fill: #fffcfc;
      }

      .cls-5 {
        stroke-width: 5px;
      }

      .cls-6 {
        stroke: none;
      }

      .cls-7 {
        clip-path: url(#clip);
      }

      .cls-9 {
        filter: url(#Path_63);
      }

      .cls-10 {
        filter: url(#Rectangle_31);
      }

      .cls-11 {
        filter: url(#Rectangle_30);
      }

      .cls-12 {
        filter: url(#Path_58-3);
      }

      .cls-13 {
        filter: url(#Path_58-2);
      }

      .cls-14 {
        filter: url(#Path_58);
      }
    </style>
    <filter id="Path_58" x="10410.809" y="1487.579" width="11" height="48.354" filterUnits="userSpaceOnUse">
      <feOffset dx="4" dy="4" input="SourceAlpha"/>
      <feGaussianBlur stdDeviation="1" result="blur"/>
      <feFlood flood-opacity="0.49"/>
      <feComposite operator="in" in2="blur"/>
      <feComposite in="SourceGraphic"/>
    </filter>
    <filter id="Path_58-2" x="10427.237" y="1488.754" width="11" height="47.297" filterUnits="userSpaceOnUse">
      <feOffset dx="4" dy="4" input="SourceAlpha"/>
      <feGaussianBlur stdDeviation="1" result="blur-2"/>
      <feFlood flood-opacity="0.49"/>
      <feComposite operator="in" in2="blur-2"/>
      <feComposite in="SourceGraphic"/>
    </filter>
    <filter id="Path_58-3" x="10443.469" y="1487.569" width="11.179" height="48.25" filterUnits="userSpaceOnUse">
      <feOffset dx="4" dy="4" input="SourceAlpha"/>
      <feGaussianBlur stdDeviation="1" result="blur-3"/>
      <feFlood flood-opacity="0.49"/>
      <feComposite operator="in" in2="blur-3"/>
      <feComposite in="SourceGraphic"/>
    </filter>
    <filter id="Rectangle_30" x="10411.03" y="1470.582" width="13.493" height="16.403" filterUnits="userSpaceOnUse">
      <feOffset dx="4" dy="4" input="SourceAlpha"/>
      <feGaussianBlur stdDeviation="1" result="blur-4"/>
      <feFlood flood-opacity="0.49"/>
      <feComposite operator="in" in2="blur-4"/>
      <feComposite in="SourceGraphic"/>
    </filter>
    <filter id="Rectangle_31" x="10439.742" y="1470.582" width="13.493" height="16.403" filterUnits="userSpaceOnUse">
      <feOffset dx="4" dy="4" input="SourceAlpha"/>
      <feGaussianBlur stdDeviation="1" result="blur-5"/>
      <feFlood flood-opacity="0.49"/>
      <feComposite operator="in" in2="blur-5"/>
      <feComposite in="SourceGraphic"/>
    </filter>
    <filter id="Path_63" x="10394.512" y="1475.79" width="74.629" height="63.618" filterUnits="userSpaceOnUse">
      <feOffset dx="4" dy="4" input="SourceAlpha"/>
      <feGaussianBlur stdDeviation="1" result="blur-6"/>
      <feFlood flood-opacity="0.49"/>
      <feComposite operator="in" in2="blur-6"/>
      <feComposite in="SourceGraphic"/>
    </filter>
    <clipPath id="clip">
      <use xlink:href="#fill"/>
    </clipPath>
  </defs>
  <g id="Group_34" data-name="Group 34" transform="translate(10397.468 1470.582)">
    <g class="cls-14" transform="matrix(1, 0, 0, 1, -10397.47, -1470.58)">
      <path id="Path_58-4" data-name="Path 58" class="cls-1" d="M0,0H41.354" transform="translate(10412.81 1487.58) rotate(90)"/>
    </g>
    <g class="cls-13" transform="matrix(1, 0, 0, 1, -10397.47, -1470.58)">
      <path id="Path_58-5" data-name="Path 58" class="cls-1" d="M0,0H40.3" transform="translate(10429.24 1488.75) rotate(90)"/>
    </g>
    <g class="cls-12" transform="matrix(1, 0, 0, 1, -10397.47, -1470.58)">
      <path id="Path_58-6" data-name="Path 58" class="cls-1" d="M0,0S40.129.2,39.225.178" transform="translate(10445.65 1487.58) rotate(90)"/>
    </g>
    <g class="cls-11" transform="matrix(1, 0, 0, 1, -10397.47, -1470.58)">
      <g id="Rectangle_30-2" data-name="Rectangle 30" class="cls-2" transform="translate(10411.03 1470.58)">
        <rect id="fill" class="cls-6" width="6.493" height="9.403" rx="3.246"/>
        <path class="cls-7" d="M0,3.5h6.49290132522583M3.5,0v9.40286636352539M6.49290132522583,5.902866363525391h-6.49290132522583M2.99290132522583,9.40286636352539v-9.40286636352539"/>
      </g>
    </g>
    <g class="cls-10" transform="matrix(1, 0, 0, 1, -10397.47, -1470.58)">
      <g id="Rectangle_31-2" data-name="Rectangle 31" class="cls-3" transform="translate(10439.74 1470.58)">
        <rect class="cls-6" width="6.493" height="9.403" rx="3.246"/>
        <rect class="cls-8" x="0.5" y="0.5" width="5.493" height="8.403" rx="2.746"/>
      </g>
    </g>
    <g class="cls-9" transform="matrix(1, 0, 0, 1, -10397.47, -1470.58)">
      <path id="Path_63-2" data-name="Path 63" class="cls-4" d="M10077.438,1537.056s.009,5.564,0,4.71-.014-29.2-.014-29.2l.014-8.508c.205-.036-35.181,0-35.181,0s-23.947-.079-25.186,0c-.111-1.526-.523,49.534,0,49.428.046.035,61.176,0,60.353,0" transform="translate(381.2 -24.61)"/>
    </g>
    <path id="Path_61" data-name="Path 61" class="cls-1" d="M10025.886,1522.666h60.584" transform="translate(-10025.299 -1477.904)"/>
    <path id="Path_56" data-name="Path 56" class="cls-5" d="M10030.179,1522.666h56.737" transform="translate(-10028.324 -1504.494)"/>
    <path id="Path_61-2" data-name="Path 61" class="cls-1" d="M10025.886,1522.666h60.584" transform="translate(-10025.886 -1491.42)"/>
  </g>
</svg>
