<svg xmlns="http://www.w3.org/2000/svg" xmlns:xlink="http://www.w3.org/1999/xlink" viewBox="10393.833 1345.989 74.309 81.67">
  <defs>
    <style>
      .cls-1, .cls-3 {
        fill: none;
      }

      .cls-1, .cls-2 {
        stroke: #fff;
        stroke-linecap: round;
        stroke-linejoin: round;
        stroke-miterlimit: 10;
      }

      .cls-1 {
        stroke-width: 7px;
      }

      .cls-2 {
        fill: rgba(255,164,164,0);
        stroke-width: 5px;
      }

      .cls-3 {
        stroke: #707070;
      }

      .cls-4 {
        filter: url(#Path_54);
      }

      .cls-5 {
        filter: url(#Path_53);
      }
    </style>
    <filter id="Path_53" x="10393.833" y="1345.989" width="74.309" height="81.67" filterUnits="userSpaceOnUse">
      <feOffset dx="4" dy="4" input="SourceAlpha"/>
      <feGaussianBlur stdDeviation="1" result="blur"/>
      <feFlood flood-opacity="0.439"/>
      <feComposite operator="in" in2="blur"/>
      <feComposite in="SourceGraphic"/>
    </filter>
    <filter id="Path_54" x="10413.874" y="1356.739" width="43.155" height="29.75" filterUnits="userSpaceOnUse">
      <feOffset dx="4" dy="4" input="SourceAlpha"/>
      <feGaussianBlur stdDeviation="1" result="blur-2"/>
      <feFlood flood-opacity="0.439"/>
      <feComposite operator="in" in2="blur-2"/>
      <feComposite in="SourceGraphic"/>
    </filter>
  </defs>
  <g id="Group_33" data-name="Group 33" transform="translate(10397.368 1349.489)">
    <g class="cls-5" transform="matrix(1, 0, 0, 1, -10397.37, -1349.49)">
      <path id="Path_53-2" data-name="Path 53" class="cls-1" d="M49.5,55.609V51.762c0-3.078,0-5.77,2.5-8.079a29.455,29.455,0,0,0,5.916-7.694c4.1-7.694,4.778-17.311,0-24.813-3.64-5.77-11.149-9.233-18.657-10A51.185,51.185,0,0,0,20.145,3.291C4.218,8.292,5.129,25.6,5.356,27.527v.385L1.033,36.567a.872.872,0,0,0,.91,1.154h4.1a.914.914,0,0,1,.91.769l1.365,15.2a.914.914,0,0,0,.91.769l15.244,1.154a.914.914,0,0,1,.91.769V67.919a.914.914,0,0,0,.91.769H49.5" transform="translate(10396.39 1348.47)"/>
    </g>
    <g id="Group_38" data-name="Group 38" transform="translate(19.006 9.724)">
      <g class="cls-4" transform="matrix(1, 0, 0, 1, -10416.37, -1359.21)">
        <path id="Path_54-2" data-name="Path 54" class="cls-2" d="M30.043,21.784s4.2,1,5.936,0c2.9-1.327,3.145-4.645,2.952-7.3-.58-4.645-5.41-7.134-10.047-8.627a21.341,21.341,0,0,0-3.091-.83c-5.024-1-9.475-.709-13.725,1.779-1.739,1.161-4.051,4.359-4.244,6.184,0,.664.39-.121.384.849,4.637,4.148,19.9,7.944,21.837,7.944" transform="translate(10408.55 1354.72)"/>
      </g>
    </g>
    <path id="Path_55" data-name="Path 55" class="cls-3" d="M34.478,26.678" transform="translate(-4.342 -3.598)"/>
  </g>
</svg>
