<svg xmlns="http://www.w3.org/2000/svg" xmlns:xlink="http://www.w3.org/1999/xlink" viewBox="10401.251 1807.383 61.297 83.117">
  <defs>
    <style>
      .cls-1, .cls-2 {
        fill: #fff;
        stroke: #fff;
      }

      .cls-1 {
        stroke-width: 3px;
      }

      .cls-2 {
        stroke-width: 2px;
      }

      .cls-3 {
        filter: url(#Path_79);
      }

      .cls-4 {
        filter: url(#Path_78);
      }
    </style>
    <filter id="Path_78" x="10401.251" y="1807.383" width="61.297" height="83.117" filterUnits="userSpaceOnUse">
      <feOffset dx="4" dy="4" input="SourceAlpha"/>
      <feGaussianBlur stdDeviation="1" result="blur"/>
      <feFlood flood-opacity="0.502"/>
      <feComposite operator="in" in2="blur"/>
      <feComposite in="SourceGraphic"/>
    </filter>
    <filter id="Path_79" x="10415.149" y="1818.984" width="34.266" height="34.266" filterUnits="userSpaceOnUse">
      <feOffset dx="4" dy="4" input="SourceAlpha"/>
      <feGaussianBlur stdDeviation="1" result="blur-2"/>
      <feFlood flood-opacity="0.502"/>
      <feComposite operator="in" in2="blur-2"/>
      <feComposite in="SourceGraphic"/>
    </filter>
  </defs>
  <g id="Group_37" data-name="Group 37" transform="translate(10402.751 1808.883)">
    <g class="cls-4" transform="matrix(1, 0, 0, 1, -10402.75, -1808.88)">
      <path id="Path_78-2" data-name="Path 78" class="cls-1" d="M25.266,73.117h0A1.934,1.934,0,0,1,23.5,71.969L2.22,34.223a7.943,7.943,0,0,1-.306-.766l-.153-.383c-.077-.077-.077-.153-.077-.306A21.214,21.214,0,0,1,0,24.347C0,10.948,11.484,0,25.648,0S51.3,10.948,51.3,24.347a23.256,23.256,0,0,1-1.608,8.5c0,.077-.077.23-.077.306l-.153.23a15.3,15.3,0,0,1-.766,1.608L39.835,52.306A1.9,1.9,0,0,1,36.39,50.7L45.325,33.3a.075.075,0,0,1,.077-.077c.23-.459.459-.919.689-1.455l.077-.153a.075.075,0,0,1,.077-.077,19.5,19.5,0,0,0,1.378-7.273C47.469,13.016,37.669,3.828,25.648,3.828S3.828,13.016,3.828,24.347A19.792,19.792,0,0,0,5.206,31.62c0,.077,0,.077.077.153l.077.153c.077.23.23.459.306.689L25.342,66.609l2.909-3.675A1.9,1.9,0,1,1,31.7,64.542l-4.67,7.427A1.934,1.934,0,0,1,25.266,73.117Z" transform="translate(10402.75 1808.88)"/>
    </g>
    <g class="cls-3" transform="matrix(1, 0, 0, 1, -10402.75, -1808.88)">
      <path id="Path_79-2" data-name="Path 79" class="cls-2" d="M30.133,39.766A12.633,12.633,0,1,1,42.766,27.133,12.645,12.645,0,0,1,30.133,39.766Zm0-22.2a9.57,9.57,0,1,0,9.57,9.57A9.574,9.574,0,0,0,30.133,17.563Z" transform="translate(10398.65 1805.48)"/>
    </g>
  </g>
</svg>
