<svg xmlns="http://www.w3.org/2000/svg" viewBox="10985 1163.703 591.273 591.274">
  <defs>
    <style>
      .cls-1, .cls-4 {
        fill: #fff;
      }

      .cls-2 {
        fill: none;
        opacity: 0.5;
      }

      .cls-3, .cls-4 {
        stroke: none;
      }
    </style>
  </defs>
  <g id="Group_13" data-name="Group 13" transform="translate(10985 1163.703)">
    <g id="logo-white-01" transform="translate(90.828 195.129)">
      <path id="Path_8" data-name="Path 8" class="cls-1" d="M611.28,192.61l5.583-12.038c.175-.565.33-1.133.522-1.691C615.453,183.056,613.292,187.615,611.28,192.61Z" transform="translate(-413.304 -121.803)"/>
      <path id="Path_10" data-name="Path 10" class="cls-1" d="M1002.633,199.187a193.824,193.824,0,0,0-23.895-33.013q1.569-1.751,3.042-3.469a191.787,191.787,0,0,0,19.233-26.541l1.55-2.7L988.989,123l-2.052,3.525a182.356,182.356,0,0,1-20.432,27.35c-19.131-17.254-39.643-26.561-59.54-26.967h-.991c-22.21-.142-43.977,10.307-64.694,31.053-2.4,2.412-4.827,4.988-7.195,7.664L832,167.988l2.1,2.369c2.359,2.643,4.763,5.21,7.155,7.582,19.418,19.273,40.049,29.114,61.324,29.253h.991c20.214-.155,41.219-9.445,61.053-26.937q.936-.829,1.874-1.682a179.335,179.335,0,0,1,21.856,30.013l1.982,3.611,13.783-10.287ZM902.756,189c-9.674-.063-19.312-2.756-28.994-8.136a94.328,94.328,0,0,1-17.679-13.007c16.372-15.233,33.085-22.9,49.722-22.795h.724c15.682.311,31.638,7.436,47.472,21.189-12.365,10.842-30.392,22.58-50.524,22.722Z" transform="translate(-561.108 -84.383)"/>
      <path id="Path_11" data-name="Path 11" class="cls-1" d="M475.562,36.35a17.6,17.6,0,0,1,2.471.287c-8.642-9.022-21.172-20.109-31.443-24.2a94.374,94.374,0,0,0-35.7-6.333q-24.959.142-45.1,11.315a83.189,83.189,0,0,0-19.537,14.866c-19.676,20.287-25.087,44.139-31.235,70.865-4.295,18.715-14.119,34.43-31.575,43.488q-15.285,7.929-35.493,8.047l-44.928.258L202.3,29.885l44.928-.254q20.2-.119,35.586,7.641c10.241,5.17,21.176,17.839,21.176,17.839L313.9,36.559l1.321-3.185s-13.353-11-19.821-14.255Q274.894,8.779,248.508,8.928l-70.1.413.951,166.41,70.131-.4q26.389-.149,46.772-10.727a78.672,78.672,0,0,0,26.792-22.382c7.45-9.911,14.007-20.528,17.486-32.514,4.8-16.518,6.032-33.511,14-49.074,9.739-19.038,29.263-30.974,50.274-33.036q3.508-.33,7.152-.367c18.523-.106,26.1-.383,40.244,12.765a68.383,68.383,0,0,1,22.411-3.687Z" transform="translate(-123.435 -6.105)"/>
      <path id="Path_12" data-name="Path 12" class="cls-1" d="M809.866,388.79a66.679,66.679,0,0,1-14.1-1.609c-12.484,12.914-22.273,15.484-40.485,15.579a67.8,67.8,0,0,1-33.564-8.127A60.352,60.352,0,0,1,700.74,375.86L690,399.011a83.33,83.33,0,0,0,19.1,14.12q20.152,10.935,45.11,10.8c12.993-.076,24.641-3.066,35.741-6.861,15.96-5.461,27.3-21.209,34.932-29.894a67.927,67.927,0,0,1-14.076,1.622Z" transform="translate(-466.019 -253.709)"/>
      <path id="Union_1" data-name="Union 1" class="cls-1" d="M-11075.757-1214.222l18.813-.173-.707-122.555-18.179.167.072-21.662,42-.386-.069,21.662h-.054l.829,143.817-.774,0v.4l-42,.386Z" transform="translate(11075.828 1363.003)"/>
    </g>
    <g id="Path_19" data-name="Path 19" class="cls-2">
      <path class="cls-3" d="M295.637,0C458.913,0,591.274,132.361,591.274,295.637c0,94.536-44.372,178.708-113.741,233.073a294.09,294.09,0,0,1-181.9,62.564C132.361,591.274,0,458.913,0,295.637S132.361,0,295.637,0Z"/>
      <path class="cls-4" d="M 295.6369018554688 569.2738037109375 C 357.4406127929688 569.2738037109375 415.6465148925781 549.2592163085938 463.9621887207031 511.393798828125 C 530.8892211914062 458.9429016113281 569.2738037109375 380.3026123046875 569.2738037109375 295.6369018554688 C 569.2738037109375 144.7530059814453 446.5208129882812 22.00000190734863 295.6369018554688 22.00000190734863 C 144.7530059814453 22.00000190734863 22.00000190734863 144.7530059814453 22.00000190734863 295.6369018554688 C 22.00000190734863 446.5208129882812 144.7530059814453 569.2738037109375 295.6369018554688 569.2738037109375 M 295.6369018554688 591.2738037109375 C 132.3612060546875 591.2738037109375 1.855468781286618e-06 458.91259765625 1.855468781286618e-06 295.6369018554688 C 1.855468781286618e-06 132.3612060546875 132.3612060546875 1.855468781286618e-06 295.6369018554688 1.855468781286618e-06 C 458.91259765625 1.855468781286618e-06 591.2738037109375 132.3612060546875 591.2738037109375 295.6369018554688 C 591.2738037109375 390.1729125976562 546.9014892578125 474.34521484375 477.53271484375 528.709716796875 C 427.6369018554688 567.8134765625 364.3765869140625 591.2738037109375 295.6369018554688 591.2738037109375 Z"/>
    </g>
  </g>
</svg>
