<svg xmlns="http://www.w3.org/2000/svg" xmlns:xlink="http://www.w3.org/1999/xlink" viewBox="10398.554 1580.691 65.568 78.313">
  <defs>
    <style>
      .cls-1 {
        fill: #fff;
        stroke: #fff;
        stroke-width: 3px;
      }

      .cls-2 {
        fill: none;
        stroke: #000;
        stroke-linecap: round;
        stroke-linejoin: round;
        stroke-miterlimit: 10;
        stroke-width: 5px;
      }

      .cls-3 {
        filter: url(#Path_71);
      }
    </style>
    <filter id="Path_71" x="10398.554" y="1580.691" width="65.568" height="78.313" filterUnits="userSpaceOnUse">
      <feOffset dx="4" dy="4" input="SourceAlpha"/>
      <feGaussianBlur stdDeviation="1" result="blur"/>
      <feFlood flood-opacity="0.502"/>
      <feComposite operator="in" in2="blur"/>
      <feComposite in="SourceGraphic"/>
    </filter>
  </defs>
  <g id="Group_35" data-name="Group 35" transform="translate(10400.054 1582.191)">
    <g class="cls-3" transform="matrix(1, 0, 0, 1, -10400.05, -1582.19)">
      <path id="Path_71-2" data-name="Path 71" class="cls-1" d="M53.722,53.6c-1.464-5.928-3.659-7.926-7.319-12.537a33.451,33.451,0,0,0-4.1-4.391,10.948,10.948,0,0,0-.951-.805c-.512-.439-1.1-.951-1.683-1.464a19.367,19.367,0,1,0-24.592-.073C5.636,41.133,0,51.014,0,65.872A1.812,1.812,0,0,0,1.83,67.7l40.987.366,10.922.245a1.83,1.83,0,0,0,0-3.66L3.66,64.042c.512-13.687,5.928-22.1,14.638-27.52a19.252,19.252,0,0,0,9.149,2.269,18.962,18.962,0,0,0,9.076-2.269,29.969,29.969,0,0,1,2.415,2.049,11.256,11.256,0,0,1,.951.878,26.562,26.562,0,0,1,3.66,3.879c3.367,4.245,5.269,5.73,6.587,11.146a1.868,1.868,0,0,0,1.757,1.391.928.928,0,0,0,.439-.073A1.778,1.778,0,0,0,53.722,53.6ZM27.447,35.132A15.736,15.736,0,1,1,43.183,19.4,15.712,15.712,0,0,1,27.447,35.132Z" transform="translate(10400.05 1582.19)"/>
    </g>
    <path id="Path_72" data-name="Path 72" class="cls-2" d="M70.9,78.8" transform="translate(-19.007 -21.125)"/>
    <path id="Path_73" data-name="Path 73" class="cls-2" d="M73.5,97.5" transform="translate(-19.704 -26.139)"/>
    <path id="Path_74" data-name="Path 74" class="cls-2" d="M70.5,78.5" transform="translate(-18.9 -21.045)"/>
  </g>
</svg>
