<svg xmlns="http://www.w3.org/2000/svg" viewBox="0 0 1364 544"><defs><style>.cls-1{fill:none;}</style></defs><title>NewLogo</title><g id="Layer_2" data-name="Layer 2"><path d="M611.28,220.44,628.18,184c.53-1.71,1-3.43,1.58-5.12C623.91,191.52,617.37,205.32,611.28,220.44Z"/><path class="cls-1" d="M1046.18,322.79h2.18c61-.43,115.51-36,152.94-68.78-47.93-41.63-96.23-63.2-143.7-64.14l-2.19,0c-50.36-.32-101,22.88-150.51,69C950.93,301,998.41,322.48,1046.18,322.79Z"/><path d="M1348.51,353.62c-1.14-2.1-27.33-49.74-72.33-99.93q4.75-5.3,9.21-10.5c36.3-42.38,57.23-78.62,58.22-80.34l4.69-8.18L1307.21,123,1301,133.67c-.25.43-23.39,40.19-61.85,82.79-57.91-52.23-120-80.4-180.23-81.63l-3,0c-67.23-.43-133.12,31.2-195.83,94-7.28,7.3-14.61,15.1-21.78,23.2L832,259.18l6.35,7.17c7.14,8,14.42,15.77,21.66,22.95,58.78,58.34,121.23,88.13,185.63,88.55h3c61.19-.47,124.77-28.59,184.81-81.54q2.83-2.51,5.67-5.09c41.32,45.82,65.91,90.39,66.16,90.85l6,10.93L1353,361.86Zm-302.33-30.83c-47.77-.31-95.25-21.81-141.28-64,49.56-46.11,100.15-69.31,150.51-69l2.19,0c47.47.94,95.77,22.51,143.7,64.14-37.43,32.82-92,68.35-152.94,68.78Z"/><path d="M1077.9,97.66c4.88.1,2.58.41,7.48.87-26.16-27.31-64.09-60.87-95.18-73.25Q941.14,5.78,882.14,6.11q-75.55.43-136.53,34.25a251.82,251.82,0,0,0-59.14,45c-59.56,61.41-75.94,133.61-94.55,214.51-13,56.65-42.74,104.22-95.58,131.64q-46.27,24-107.44,24.36l-136,.78L250.73,78.09l136-.77q61.15-.36,107.72,23.13c31,15.65,64.1,54,64.1,54l30-56.16,4-9.64s-40.42-33.3-60-43.15q-62.08-31.3-141.95-30.85L178.41,15.9l2.88,503.73,212.29-1.22q79.88-.45,141.58-32.47c31.61-16.41,59.67-39.22,81.1-67.75,22.55-30,42.4-62.14,52.93-98.42,14.52-50,18.26-101.44,42.37-148.55,29.48-57.63,88.58-93.76,152.18-100q10.62-1,21.65-1.11c56.07-.32,79-1.16,121.82,38.64a207,207,0,0,1,67.84-11.16Z"/><path d="M1052.84,415a201.84,201.84,0,0,1-42.69-4.87C972.36,449.22,942.73,457,887.6,457.29q-56.13.33-101.6-24.6a182.68,182.68,0,0,1-63.49-56.83L690,445.94a252.25,252.25,0,0,0,57.81,42.74q61,33.1,136.55,32.68c39.33-.23,74.59-9.28,108.19-20.77,48.31-16.53,82.65-64.2,105.74-90.49a205.6,205.6,0,0,1-42.61,4.91Z"/><rect x="68.08" y="20.43" width="71.96" height="499.43" transform="translate(-1.54 0.6) rotate(-0.33)"/><polygon points="139.14 84.3 139.35 18.73 12.22 19.9 12 85.47 139.14 84.3"/><polygon points="139.14 520.87 139.35 455.3 12.22 456.47 12 522.04 139.14 520.87"/></g></svg>