<svg id="Covers" data-name="Layer 1" xmlns="http://www.w3.org/2000/svg" xmlns:xlink="http://www.w3.org/1999/xlink" viewBox="0 0 1920 1080"><defs><style>.cls-1{fill:none;}.cls-2{opacity:0.97;}.cls-3{opacity:0.99;}.cls-4{fill:url(#HEXPattern);}</style><pattern id="HEXPattern" data-name="HEXPattern" x="1" width="93.11" height="72.68" patternUnits="userSpaceOnUse" viewBox="0 0 93.11 72.68"><rect class="cls-1" width="93.11" height="72.68"/><polygon class="cls-2" points="124.74 101.94 124.74 80.1 104.67 69.18 84.61 80.1 84.61 101.94 104.67 112.86 124.74 101.94"/><polygon class="cls-2" points="31.63 101.94 31.63 80.1 11.56 69.18 -8.5 80.1 -8.5 101.94 11.56 112.86 31.63 101.94"/><polygon class="cls-3" points="77.61 101.94 77.61 80.1 57.55 69.18 37.48 80.1 37.48 101.94 57.55 112.86 77.61 101.94"/><polygon class="cls-2" points="124.74 29.26 124.74 7.42 104.67 -3.5 84.61 7.42 84.61 29.26 104.67 40.18 124.74 29.26"/><polygon class="cls-2" points="31.63 29.26 31.63 7.42 11.56 -3.5 -8.5 7.42 -8.5 29.26 11.56 40.18 31.63 29.26"/><polygon class="cls-3" points="77.61 29.26 77.61 7.42 57.55 -3.5 37.48 7.42 37.48 29.26 57.55 40.18 77.61 29.26"/><polygon class="cls-2" points="55.63 65.26 55.63 43.42 35.56 32.5 15.5 43.42 15.5 65.26 35.56 76.18 55.63 65.26"/><polygon class="cls-3" points="101.61 65.26 101.61 43.42 81.55 32.5 61.48 43.42 61.48 65.26 81.55 76.18 101.61 65.26"/><polygon class="cls-3" points="8.5 65.26 8.5 43.42 -11.56 32.5 -31.63 43.42 -31.63 65.26 -11.56 76.18 8.5 65.26"/><polygon class="cls-2" points="55.63 -7.42 55.63 -29.26 35.56 -40.18 15.5 -29.26 15.5 -7.42 35.56 3.5 55.63 -7.42"/><polygon class="cls-3" points="101.61 -7.42 101.61 -29.26 81.55 -40.18 61.48 -29.26 61.48 -7.42 81.55 3.5 101.61 -7.42"/><polygon class="cls-3" points="8.5 -7.42 8.5 -29.26 -11.56 -40.18 -31.63 -29.26 -31.63 -7.42 -11.56 3.5 8.5 -7.42"/></pattern></defs><title>CoverS</title>
    
    
    <rect class="cls-4 Rec1" x="0.5" y="594.5" width="1919" height="485"/>
    <rect class="cls-4 Rec2" x="944.5" y="0.5" width="947" height="1079"/>
    <rect class="cls-4 Rect3" x="0.5" y="4.5" width="1918" height="602.7"/>
    <rect class="cls-4 Rec4" x="1.5" y="0.5" width="936" height="1079"/></svg>