<svg id="Layer_1" data-name="Layer 1" xmlns="http://www.w3.org/2000/svg" viewBox="0 0 1057.99 491.4"><defs><style>.cls-1,.cls-2,.cls-3,.cls-5,.cls-6{isolation:isolate;}.cls-2{font-size:103px;}.cls-2,.cls-3,.cls-5,.cls-6,.cls-7{fill:none;stroke:#fff;stroke-miterlimit:10;}.cls-2,.cls-3{stroke-width:2px;}.cls-2,.cls-3,.cls-5,.cls-6{font-family:Quantum, Quantum;}.cls-3{font-size:105px;}.cls-4{letter-spacing:-0.03em;}.cls-5{font-size:71px;}.cls-6{font-size:60px;}.cls-7{stroke-linecap:round;stroke-width:3px;}
    
   
              
              #Layer_1-2{
                  stroke-dasharray: 500;
                  stroke-dashoffset: 0;
                  -webkit-animation: dash 5s ease-out both;
               
              
                                          
              }
                                   
              @-webkit-keyframes dash {
                  from{stroke-dashoffset: 500;}
                  to {stroke-dashoffset: 0;}
              }
           
    
    
    </style></defs><title>IDCtextLoad2</title><g id="Layer_1-2" data-name="Layer 1"><g class="cls-1"><text class="cls-2" transform="translate(104.03 212)">IGLESIA D</text><text class="cls-3" transform="translate(534.53 212)">E CRI<tspan class="cls-4" x="235.17" y="0">S</tspan><tspan x="297" y="0">TO</tspan></text></g><g class="cls-1"><text class="cls-5" transform="translate(655.38 288.32)">EN ELGIN</text><text class="cls-6" transform="translate(953.53 275.89)"> </text></g></g><polygon class="cls-7" points="991.28 101.79 991.28 121.79 1008.6 131.79 1025.92 121.79 1025.92 101.79 1008.6 91.79 991.28 101.79"/><polygon class="cls-7" points="68.69 206.71 62.12 225.6 75.18 240.74 94.83 236.99 101.41 218.1 88.34 202.96 68.69 206.71"/><polygon class="cls-7" points="599.06 73.06 599.06 93.06 616.38 103.06 633.7 93.06 633.7 73.06 616.38 63.06 599.06 73.06"/><polygon class="cls-7" points="456.54 285.17 456.54 330.2 495.53 352.72 534.53 330.2 534.53 285.17 495.53 262.65 456.54 285.17"/><polygon class="cls-7" points="363.34 68.83 358.04 88.11 372.09 102.35 391.44 97.3 396.74 78.01 382.69 63.78 363.34 68.83"/><polygon class="cls-7" points="930.6 60.55 930.6 105.58 969.6 128.09 1008.6 105.58 1008.6 60.55 969.6 38.03 930.6 60.55"/><polygon class="cls-7" points="1.5 24.25 1.5 69.28 40.5 91.79 79.5 69.28 79.5 24.25 40.5 1.73 1.5 24.25"/><polygon class="cls-7" points="79.14 247.09 73.64 262.89 84.57 275.56 101.01 272.42 106.51 256.62 95.58 243.95 79.14 247.09"/><polygon class="cls-7" points="106.86 224.13 101.35 239.93 112.28 252.6 128.72 249.47 134.23 233.66 123.29 221 106.86 224.13"/><polygon class="cls-7" points="616.38 35.52 616.38 80.55 655.38 103.06 694.38 80.55 694.38 35.52 655.38 13 616.38 35.52"/><polygon class="cls-7" points="431.74 320.2 431.74 385.23 488.06 417.75 544.38 385.23 544.38 320.2 488.06 287.69 431.74 320.2"/><polygon class="cls-7" points="35.54 46.03 35.54 80.09 65.03 97.12 94.53 80.09 94.53 46.03 65.03 29.01 35.54 46.03"/><polygon class="cls-7" points="389.72 75.95 387.07 85.59 394.09 92.7 403.77 90.18 406.42 80.54 399.39 73.42 389.72 75.95"/><polygon class="cls-7" points="980.7 236.8 959.47 257.09 966.42 285.62 994.61 293.86 1015.84 273.57 1008.88 245.04 980.7 236.8"/><polygon class="cls-7" points="1021.18 279.15 999.95 299.45 1006.91 327.98 1035.1 336.22 1056.33 315.93 1049.37 287.39 1021.18 279.15"/><polygon class="cls-7" points="963.81 293.88 942.58 314.17 949.54 342.7 977.73 350.94 998.96 330.65 992 302.12 963.81 293.88"/><polygon class="cls-7" points="46.85 420.09 57.52 463.84 100.75 476.47 133.3 445.35 122.63 401.61 79.41 388.97 46.85 420.09"/><polygon class="cls-7" points="61.48 416.26 75.38 473.26 131.69 489.71 174.1 449.18 160.19 392.19 103.89 375.73 61.48 416.26"/></svg>