<svg id="Layer_1" data-name="Layer 1" xmlns="http://www.w3.org/2000/svg" xmlns:xlink="http://www.w3.org/1999/xlink" width="520" height="459" viewBox="0 0 520 419">
  <defs>
    <style>
      .cls-1 {
        fill: url(#linear-gradient);
       
       
      }

      .cls-2 {
        fill: url(#linear-gradient-2);
        
      }

      .cls-3 {
        fill: none;
      
      }

      .cls-4 {
        fill: url(#linear-gradient-3);
        -webkit-animation: bottommove 1s alternate infinite;
         -webkit-animation-delay: .1s;


       
      }
        @-webkit-keyframes bottommove {
            0%{-webkit-transform: translate(-47px, -145px) rotateY(-69deg); -webkit-transform-origin: 100% 50%; opacity:.2;}
            100% {-webkit-transform: translate(-55px, -145px);}
      }

      .cls-5 {
        fill: url(#linear-gradient-4);
      }

      .cls-6 {
        fill: url(#linear-gradient-5);
         -webkit-animation: move 1s alternate infinite;
         -webkit-animation-delay: .1s;
         
      }
        @-webkit-keyframes move {
             0%{-webkit-transform: translate(0px, 0px);}
            100% {-webkit-transform: translate(-10px, -10px);}
      }


      .cls-7 {
        fill: #6fc;
    }
      .cls-8 {
        fill: url(#linear-gradient-6);
        -webkit-animation: fade 2.5s alternate infinite;
         -webkit-animation-delay: .1s;
        
      }

      .cls-9 {
        fill: url(#linear-gradient-7);
        -webkit-animation: fade 2s alternate infinite;
         -webkit-animation-delay: .5s;

      }

      .cls-10 {
        fill: url(#linear-gradient-8);
         -webkit-animation: fade 1s alternate infinite;
         -webkit-animation-delay: .2s;

        }

      .cls-11 {
        fill: url(#linear-gradient-9);
          -webkit-animation: fade 3s alternate infinite;
         -webkit-animation-delay: .4s;
      
      }

      .cls-12 {
        fill: url(#linear-gradient-10);
           -webkit-animation: fade 2s alternate infinite;
         -webkit-animation-delay: .4s;
      }

      .cls-13 {
        fill: url(#linear-gradient-11);
           -webkit-animation: fade 1s alternate infinite;
         -webkit-animation-delay: .8s;
      
      }

      .cls-14 {
        fill: url(#linear-gradient-12);
           -webkit-animation: fadelong 2s alternate infinite;
         -webkit-animation-delay: .6s;
 
      }

      .cls-15 {
        fill: url(#linear-gradient-13);
        -webkit-animation: fadelong 4s alternate infinite;
         -webkit-animation-delay: .3s;
  
      }

      .cls-16 {
        fill: url(#linear-gradient-14);
        -webkit-animation: fade 2s alternate infinite;
         -webkit-animation-delay: .6s;
 
      }

      .cls-17 {
        fill: url(#linear-gradient-15);
        -webkit-animation: fade 1.5s alternate infinite;
         -webkit-animation-delay: .2s;
   
      }
        .cls-18 {
        font-size: 25px;
        stroke: #6fc;
        stroke-miterlimit: 10;
        font-family: Impact, Impact;
      }
        
        
         @-webkit-keyframes fade {
            0%{ width: 0px; }
            25%{ width: 20px; opacity:.5;height:15px;}
            50%{ width: 100px; }
            75%{ width: 80px; height:15px;}
            100% { width: 186px;}
      }
        @-webkit-keyframes fadelong {
            0%{ width: 0px; }
            25%{ width: 150px; height:15px;}
            50%{ width: 100px;}
            75%{ width: 230px; opacity:0.5;height:15px;}
            100% { width: 384px;}
      }
    
    .person{
           -webkit-animation: person 5s infinite;
       
         
      }
        @-webkit-keyframes person {
             0%{-webkit-transform: translate(-85px, -30px);opacity:0;}
            25%{opacity:0;}
            35%{opacity:.5;}
            50%{-webkit-transform: translate(0px, 0px);opacity:1;}
            65%{opacity:.5;}
            75%{opacity:0;}
            100% {-webkit-transform: translate(80px, -30px);opacity:0;}
      }
    </style>
      
     
      
      
      
    <linearGradient id="linear-gradient" x1="-613" y1="50" x2="-613" y2="50" gradientUnits="userSpaceOnUse">
      <stop offset="0" stop-color="#6fc"/>
      <stop offset="0.99" stop-color="#6fc" stop-opacity="0.5"/>
    </linearGradient>
    <linearGradient id="linear-gradient-2" x1="-390" y1="248" x2="-390" y2="248" xlink:href="#linear-gradient"/>
    <linearGradient id="linear-gradient-3" x1="79" y1="195" x2="79" y2="564" gradientUnits="userSpaceOnUse">
      <stop offset="0" stop-color="#6fc"/>
      <stop offset="1" stop-color="#6fc" stop-opacity="0.5"/>
    </linearGradient>
    <linearGradient id="linear-gradient-4" x1="62" y1="50" x2="62" y2="419" xlink:href="#linear-gradient-3"/>
    <linearGradient id="linear-gradient-5" x1="339" y1="145" x2="339" xlink:href="#linear-gradient-3"/>
    <linearGradient id="linear-gradient-6" x1="377" y1="50" x2="377" y2="71" xlink:href="#linear-gradient-3"/>
    <linearGradient id="linear-gradient-7" x1="377" y1="93" x2="377" y2="114" xlink:href="#linear-gradient-3"/>
    <linearGradient id="linear-gradient-8" x1="377" y1="136" x2="377" y2="157" xlink:href="#linear-gradient-3"/>
    <linearGradient id="linear-gradient-9" x1="377" y1="179" x2="377" y2="200" xlink:href="#linear-gradient-3"/>
    <linearGradient id="linear-gradient-10" x1="175" y1="220" x2="175" y2="241" xlink:href="#linear-gradient-3"/>
    <linearGradient id="linear-gradient-11" x1="175" y1="263" x2="175" y2="284" xlink:href="#linear-gradient-3"/>
    <linearGradient id="linear-gradient-12" x1="278" y1="306" x2="278" y2="327" xlink:href="#linear-gradient-3"/>
    <linearGradient id="linear-gradient-13" x1="278" y1="349" x2="278" y2="370" xlink:href="#linear-gradient-3"/>
    <linearGradient id="linear-gradient-14" x1="377" y1="220" x2="377" y2="241" xlink:href="#linear-gradient-3"/>
    <linearGradient id="linear-gradient-15" x1="377" y1="263" x2="377" y2="284" xlink:href="#linear-gradient-3"/>
  </defs>
  <title>NewsIcon</title>
  <path class="cls-1" d="M-613,50" transform="translate(-55 -145)"/>
  <path class="cls-2" d="M-390,248" transform="translate(-55 -145)"/>
  <g>
    <rect class="cls-3" x="33" y="71.89" width="15" height="325.22"/>
    <polygon class="cls-3" points="398.84 394.14 492 394.14 492 24.86 76 24.86 76 50 398.84 50 398.84 394.14"/>
    <rect class="cls-3" x="76" y="71.89" width="299.18" height="322.25"/>
    <path class="cls-4" d="M88,542.11V216.89h15V195H55V545.58C55,555.75,62.91,564,72.67,564H103V542.11Z" transform="translate(-55 -145)"/>
    <rect class="cls-5" x="48" y="50" width="28" height="21.89"/>
    <path class="cls-6" d="M103,145V564H552.5A22.5,22.5,0,0,0,575,541.5V145ZM547,539.14H131V169.86H547Z" transform="translate(-55 -145)"/>
  </g>
  <path class="cls-7" d="M155,194.75V328H305.11V194.75ZM288.45,312.58H171.66V208.9H288.45Z" transform="translate(-55 -145)"/>
  
   <g id="textMoving"> 
      
    <rect class="cls-8" x="284" y="50" width="186" height="21" rx="10.5" ry="10.5"/>
  <rect class="cls-9" x="284" y="93" width="186" height="21" rx="10.5" ry="10.5"/>
  <rect class="cls-10" x="284" y="136" width="186" height="21" rx="10.5" ry="10.5"/>
  <rect class="cls-11" x="284" y="179" width="186" height="21" rx="10.5" ry="10.5"/>
  <rect class="cls-12" x="95" y="220" width="160" height="21" rx="10.5" ry="10.5"/>
  <rect class="cls-13" x="95" y="263" width="160" height="21" rx="10.5" ry="10.5"/>
  <rect class="cls-14" x="86" y="306" width="384" height="21" rx="10.5" ry="10.5"/>
  <rect class="cls-15" x="86" y="349" width="384" height="21" rx="10.5" ry="10.5"/>
  <rect class="cls-16" x="284" y="220" width="186" height="21" rx="10.5" ry="10.5"/>
  <rect class="cls-17" x="284" y="263" width="186" height="21" rx="10.5" ry="10.5"/>
    </g>
    <g class="person">
  <circle class="cls-7" cx="175.88" cy="163.28" r="12.89"/>
  <path class="cls-7" d="M175.12,181.7h.76a17.5,17.5,0,0,1,17.5,17.5v21.18a0,0,0,0,1,0,0H155.62a0,0,0,0,1,0,0V201.2A19.5,19.5,0,0,1,175.12,181.7Z"/>
    </g>
    
     <text class="cls-18" x="-55" y="-87.61"><tspan x="126" y="146.56">NOTICIAS!</tspan></text>
  <text x="-55" y="-87.61"></text>
  <text x="-55" y="-87.61"></text>
</svg>
