<svg id="Layer_1" data-name="Layer 1" xmlns="http://www.w3.org/2000/svg" viewBox="0 0 689.05 1744.57"><defs><style>.cls-1{fill:#fff;}</style></defs><title>symbol2</title><path class="cls-1" d="M709.9,1056.63q-17.46-30.14-35-60.2-15.64-26.89-31.25-53.8c-10.1-17.82-20.11-35.69-30.33-53.44-16.55-28.72-33.3-57.33-49.82-86.07-1.58-2.76-3.36-3.46-6.32-3.44-16,.13-32,0-48,.09-1.41,0-2.95-.48-4.52.73,6.12,10.85,12.13,21.73,18.93,32.15,2.69,4.9,5.31,9.84,8.09,14.69q15.92,27.76,31.94,55.48,13.9,24,27.92,48h0l59.12,102.95H645c-25.32,0-50.64.07-76-.09a6.35,6.35,0,0,0-6.27,3.54l-25.89,45.43c8.28.39,16.22.85,24,.9,56.79.39,113.59.17,170.39.29,4.19,0,5.16-.94,3-4.64C726.17,1085,718.1,1070.78,709.9,1056.63ZM582.55,904c0-.09,0-.18,0-.27l.22.15Z" transform="translate(-78.52 -68.22)"/><path class="cls-1" d="M741.74,145.56c-7.66.21-15.33.22-23-.06-3.76-.14-5.16.71-5.18,4.85a261.84,261.84,0,0,1-4.29,47.09c-7.82,41.86-23.69,80.37-48.35,115.23-27.74,39.22-63.1,69.57-105.66,91.62-19.94,10.33-41,17.66-62.71,23.41-1.79.31-3.61.52-5.37.93a291.79,291.79,0,0,1-43.66,6.29c-3.13.24-3.92-.63-3.89-3.74.15-17.45.09-34.9,0-52.36,0-1.76-.05-3.32,2-3.93a49.21,49.21,0,0,0,5-.08c23.54-2.69,46.35-8.23,68.11-17.77C560.2,337.15,595.88,306,621.41,263.5c20.78-34.58,31.41-72.23,32.46-112.59.1-3.78-.65-5.44-4.85-5.32-7.82.22-15.66,0-23.48-.23-2.88-.09-4.1.51-4.13,3.76a195.7,195.7,0,0,1-2.9,30.12,188.46,188.46,0,0,1-33.95,81.53c-34.95,47.91-82.21,74.81-140.94,81.92-2.9.35-4-.11-4-3.48.18-18.66.15-37.32,0-56,0-2.8.89-3.43,3.54-3.87,39.41-6.58,70.68-26.12,93-59.37,14-20.89,21.18-44.12,22.35-69.25.18-3.95-.94-5.26-5-5.15-7.82.23-15.66,0-23.48-.23-3.24-.11-4.57.86-4.31,4.21.42,5.35-.42,10.67-1.41,15.87-7.66,40.54-39.18,72.15-80,80.82-3.82.81-4.73.38-4.71-3.67.17-30.32-.06-60.65.25-91,.05-5.31-1.56-6.38-6.37-6.1a177.16,177.16,0,0,1-20.48,0c-4.38-.25-5.57,1-5.53,5.46.22,30.65.08,61.31.18,92,0,3.27-.51,4.26-4.13,3.49-30.33-6.48-53.23-23.17-69.09-49.71a174.71,174.71,0,0,1-8.67-20c-1.87-7-3.88-14.05-4.2-21.38-.44-10.36-.38-10.36-11-9.64h0c-5.49,0-11,.21-16.46-.14-4.44-.29-5.8,1.25-5.54,5.67,1.28,21.34,6.48,41.55,17.09,60.17,14.19,24.92,34,44,60.09,56.16h0a133.89,133.89,0,0,0,38.39,11.78c2.67.43,3.56,1.08,3.54,3.87-.15,19.82-.13,39.63-.16,59.45l-13.69-1a7.07,7.07,0,0,0-1.72-.41c-4.72-1.12-9.44-2.25-14.16-3.33-34.27-7.84-64-24.21-89.69-48-18.87-17.47-33.2-38.25-44.54-61.21a3.78,3.78,0,0,0-.16-1c-11.61-25.18-16.86-51.8-17.79-79.36-.11-3.21-1.75-3.38-4.17-3.31-7.48.24-15,.67-22.43.49-4.46-.11-6,1-5.88,5.8A229,229,0,0,0,205,218.54c5.64,16.63,12.45,32.79,22.56,47.34h0c4.06,8.45,9.89,15.72,15.67,23a227.9,227.9,0,0,0,67,57.23c21.12,11.89,43.35,20.59,67.19,25.07h0A211.48,211.48,0,0,0,403.35,375c2.42.18,4.34.3,4.31,3.8-.17,17.61-.11,35.22,0,52.83,0,2.53-.6,3.64-3.35,3.32-5.92-.69-11.87-1.22-17.81-1.72-10.73-.91-21.13-3.68-31.69-5.55a5.28,5.28,0,0,0-1.27-.38c-12.7-3.77-25.4-7.49-37.74-12.42-36.91-14.73-69.18-36.41-97.44-64.23-10.8-10.63-20.09-22.56-29.64-34.28h0c-.61-1-1.17-2-1.83-3a292.36,292.36,0,0,1-32.41-59.25,288.74,288.74,0,0,1-20.8-104.73c0-3-.86-4.08-4-4-7.82.22-15.66.38-23.47.05-4.49-.19-5.69,1.31-5.53,5.68.93,24.79,3.82,49.29,9.93,73.37A319.81,319.81,0,0,0,137.09,294a318.13,318.13,0,0,0,35.08,53.7c12.17,15,25.33,29.09,40.29,41.4,2.34,2.1,4.6,4.31,7,6.29A320,320,0,0,0,288,438.32c16.66,7.63,33.6,14.57,51.65,18.34h0a20.31,20.31,0,0,0,2.76,1.13,322.83,322.83,0,0,0,59.78,9.61c4.66.28,5.56,1.66,5.54,6-.12,35.78,0,71.56.06,107.34-.23.94-.31,2.22-1.68,2-6-1.12-5.94,3.51-6.38,7a57.49,57.49,0,0,1-8.3,22.78c-5,8.32-9.46,17-15.94,24.48,2.38,1.62,4.92,0,7.21,1.56l-14.89,26.31C359,679.94,350.17,695,341.56,710.2c-4.73,8.35-10.42,16.19-13.93,25.22h0a11,11,0,0,0-1.24,1.48q-37.24,64.38-74.52,128.73c-1.28,2.21-.66,3.54.39,5.33,5.61,9.6,11.12,19.24,16.69,28.87,3.2,5.54,6.43,11.07,10.06,17.3l68.62-119.26h0c3.62-6,7.34-11.9,10.85-17.94q12.79-22,25.42-44.09c6.88-12,13.67-24.09,20.5-36.13h0l21.27-35.81,34.1,58.84c2.28,3.95,4.81,7.78,6.74,11.89,1.18,2.51,2.59,3.21,5.23,3.18,10.83-.15,21.65-.06,32.48-.07h21.34L468,637.94l6.32-.39-9.65-15.77h0c-5.84-10.17-9-21.29-10.91-32.73-.69-4.24-2.82-4.9-6.19-5.35-3-.41-6.64-.06-8-4h0c.06-2,.17-4,.17-6,0-33.82.09-67.65-.05-101.47,0-3.64.78-4.73,4.57-4.82A175.16,175.16,0,0,0,464,465.59c18.19-2.57,36.29-5.65,53.69-11.81h0c10.64-2.67,20.79-6.74,30.88-11a323.5,323.5,0,0,0,180.75-194A326.18,326.18,0,0,0,746.28,150C746.36,146.49,745.19,145.47,741.74,145.56Z" transform="translate(-78.52 -68.22)"/><path class="cls-1" d="M526.74,1102.78c2.37.08,3.69-1.06,4.73-2.92,4-7.16,8-14.35,12.16-21.47q16.05-27.77,32.19-55.49c7.75-13.38,15.44-26.79,23.22-40.15,1.38-2.36,1.36-4-.21-6.64-8.4-14.13-16.4-28.51-24.47-42.84-1.48-2.62-2.27-3.22-4,0-7.2,13-14.65,25.82-22,38.72h0c-1.18,1.78-2.45,3.5-3.52,5.34-11.75,20.3-23.59,40.54-35.14,61-7.65,13.5-16,26.59-22.92,40.52l-13.89,23.77h25.82l11.1,0h0C515.42,1102.6,521.08,1102.59,526.74,1102.78Z" transform="translate(-78.52 -68.22)"/><path class="cls-1" d="M115.28,744.82c3.14,5.47,5.9,10.34,8.71,15.18q17.35,29.86,34.72,59.7l43.92,76c11.28,20.26,22.73,40.43,34.84,60.21h0a5.17,5.17,0,0,0,.34,1.44q25.11,43.47,50.19,86.95c1.57,2.74,3.45,3.45,6.41,3.42,15.32-.13,30.65-.06,46-.06,6.25,0,6.26,0,3.21-5.29q-43.25-74.89-86.52-149.77-17.65-30.51-35.46-60.92h0a5.38,5.38,0,0,0-1.95-3.2h0a7.67,7.67,0,0,0-2.09-3.77h0l-17.19-30h0c1.13-1.86,3-1,4.48-1.06,7.91-.13,15.82-.14,23.74-.2h0c18.11.07,36.23.09,54.34.24,2.66,0,3.7-1.47,4.83-3.46,5.89-10.36,11.89-20.65,17.86-31L314,744.8H115.28Z" transform="translate(-78.52 -68.22)"/><path class="cls-1" d="M575.34,1524.68h0c.77-36.27-2.8-72-13-107h0c-2.21-10.82-6.26-21.12-10.22-31.31-3.56-9.14-6.88-18.42-11.2-27.33s-7.88-18.19-12.77-26.65c-10.82-18.74-21.5-37.61-33.62-55.58-1.73-2.56-3.06-5.45-5.88-7.1h0q-13.56-19.44-27.11-38.9c-.89-1.28-2.58-2.41-1.55-4.36,2.24-4.24,3-9,5.46-13.24,9.19-15.75,18.18-31.63,27.24-47.45,6.49-9.14,11.59-19.1,16.89-28.93h0l15.43-26H502.6l-8.07,0h0c-7.64,0-15.29.09-22.93-.17-2.76-.09-4,1-5.33,3.23-8.67,15.24-17.48,30.39-26.26,45.57-4.68,8.1-9.38,16.19-14.33,24.73-5.07-7.26-8.12-15-13.29-21.42,0-.33.12-.72,0-1-9.44-16.43-18.93-32.83-28.32-49.3-.93-1.63-2.07-1.81-3.62-1.79-6.62.08-13.25.12-19.87.18h-34c2.87,5,5.39,9.44,8,13.84q17,29.08,33.95,58.15h0a57.47,57.47,0,0,0,7,12.06h0c4.71,9.22,9.33,18.48,14.18,27.63,1.23,2.32,1.88,4.41.69,6.83-9,11.41-17.53,23.22-25.68,35.28a485.77,485.77,0,0,0-34.93,55.11,348.85,348.85,0,0,0-26,54,271.45,271.45,0,0,0-12,34.09c-4.84,16.71-9.36,33.52-11.22,50.9h0c-2.45,7.16-2.25,14.7-3.11,22.09-2.85,24.4-2.4,48.84-.44,73.24a307.24,307.24,0,0,0,19.94,86.1c3.61,9.38,6.85,19,12.39,27.52h0a18.46,18.46,0,0,0,2.06,6.06c11.36,22.3,25.2,43,40.25,62.92,10.64,14.11,22.25,27.34,34,40.48,7.82,8.74,16.06,17.06,24.14,25.54a5.44,5.44,0,0,1,1.11.81c1,.95,2,1.92,3,2.89l12.74,6.36a5.53,5.53,0,0,1,1.15-.12l.39,0c.05-.06.09-.13.15-.18a20.86,20.86,0,0,1,5.09-4,5.63,5.63,0,0,1,2.07-.6,3.5,3.5,0,0,1,.25-1.09c3.26-2.82,6.94-5.29,9.7-8.54,8.74-10.31,18.46-19.72,27.34-29.91,11.73-13.46,22.91-27.3,33.35-41.75,3.85-5.33,8.45-10.28,10.37-16.83,3.69-2.79,5.33-6.94,7.24-10.92a8.86,8.86,0,0,0,3.94-6c3.55-3.92,5.52-8.8,7.87-13.39,5.16-10.06,9.72-20.41,14.32-30.75,8.25-18.52,13.55-37.89,18.55-57.37,2.39-9.32,3.44-19,4.39-28.64C573.94,1550,576,1537.45,575.34,1524.68Zm-56.29,16.95a142.55,142.55,0,0,1-3.63,31.67c-1.44,6.1-3.25,12.26-2.73,18.69,0,.08.06.16.09.23a4.66,4.66,0,0,0-1.65,2.92,407.93,407.93,0,0,1-16.3,45.94c-.73,1.73-1.83,3.56-.46,5.48-3.54,1.47-4.51,5-5.79,8-3.83,9.08-9.09,17.35-14.28,25.63a365,365,0,0,1-27.84,39.37c-1.07,1.29-2.5,2.63-2.05,4.54a13.06,13.06,0,0,0-5.77,4.92c-3.46,5.11-8.26,9.07-11.9,14-1.92,2.6-3.8,2.7-5.92,0-1-1.32-2.19-2.92-4.18-2.65-.89-4-3.42-6.87-6.39-9.5l-.33-.17c.23-1.41-1.14-2.24-1.93-3.24-27.69-35.19-50.5-73-63.76-116.16-9.06-29.53-13.36-59.66-14.27-90.39-.39-13,.76-25.92,2-38.84,1.76-18.29,6.07-36.05,11.19-53.66,1.84-6.33,5-12.32,5-19.15a6.23,6.23,0,0,0-.54-.49c3.35-2.5,4.41-6,4.34-10l-.14-.18c2-1,2.91-2.48,1.78-4.8,3.77-2.3,4.77-5.76,4-9.94.68.31,1.43-.37,2.11-1.26a25.77,25.77,0,0,0,3.26-6.16c3.86-9.6,9.16-18.46,14.24-27.41a604,604,0,0,1,43-64.75c1.19-1.58,3-3,2.52-5.38,2-.34,3.69-.56,5.27,1.69,15.09,21.55,30,43.21,42.73,66.26,3.06,5.53,6.3,11,9.07,16.65.68,1.4,1.52,4.12,3.57,3.38l-.07.13c-1.07,2.13-.17,3.42,1.83,4.22h.15c-.5,1.1-.66,2.08.69,2.48a6.28,6.28,0,0,0-.38,1.21c-.09,1.91.78,3.55,1.51,5.23a439.52,439.52,0,0,1,18.26,49.13c8.6,28.88,13.82,58.22,14,88.49C519.42,1525.71,519.12,1533.66,519.05,1541.63Z" transform="translate(-78.52 -68.22)"/><path class="cls-1" d="M732,743.76c-31.13.17-62.26.14-93.39.18h0c-3.44-.05-6.89-.15-10.33-.15q-82.74,0-165.47,0c-1.74,0-3.69-.71-5.22.82a43.92,43.92,0,0,0-5.87-.79c-20.47-.06-40.94,0-61.42-.08-2.79,0-4.5.81-5.94,3.37q-12.23,21.66-24.84,43.1c-1.53,2.62-1.21,3.53,1.85,3.52q38.19-.14,76.38-.21h0c2,.06,4,.19,6,.19l200.88,0h6c-3.95,6.95-7.46,13.22-11.06,19.44q-15.17,26.21-30.43,52.37c-1,1.71-1,2.86.09,4.74,6,10.18,11.42,20.7,17.56,30.78,3.18,5.22,5.67,10.95,10,16l72.76-126.2h0q12.28-21.19,24.53-42.39C735.51,746.13,737.23,743.73,732,743.76Zm-71.28,14.42,0,0Z" transform="translate(-78.52 -68.22)"/><path class="cls-1" d="M192.76,140c.62,1.84,2.34,1.56,3.81,1.56,4.49,0,9,0,13.48,0a41.49,41.49,0,0,1,5.49,0c7.12,1,11.74-.65,15.31-8.2,3.68-7.78,10.35-14.14,15.66-21.15.86-1.14,2.49-2.27,1.73-3.85s-2.67-.85-4.06-.85c-21.64,0-43.28-.09-64.92,0-2.82,0-7.06-1.7-8.19,1.05s2.55,5.31,4.42,7.8C181.33,124.22,189.5,130.3,192.76,140Z" transform="translate(-78.52 -68.22)"/><path class="cls-1" d="M670.46,107.61c-11.32-.06-22.64,0-34,0-11.82,0-23.64.07-35.46,0-3.63,0-4.11,1-2.14,3.91,3.47,5.12,7.73,9.57,11.76,14.22,3.17,3.65,6.76,7.24,8.29,11.75,1.22,3.59,3,4,6.12,4,7.16-.15,14.33-.3,21.47,0,4.73.23,8.34-.18,9.45-5.79.36-1.82,1.9-3.48,3.12-5,4.6-5.91,9.34-11.7,13.89-17.64,1-1.36,3.09-2.84,2.1-4.68C674.25,106.74,672,107.62,670.46,107.61Z" transform="translate(-78.52 -68.22)"/><path class="cls-1" d="M407.32,138.16c1.09,2.57,2.24,3.23,4.65,3.21,7.32-.07,14.66-.22,22,0,4.92.18,9.13.1,10.23-6.11.29-1.66,1.76-3.17,2.87-4.61,4.88-6.32,9.84-12.56,14.72-18.88.77-1,2.11-2.09,1.45-3.47s-2.38-.73-3.6-.74c-11.82-.06-23.64,0-35.46,0-9.16,0-18.31-.08-27.47,0-3.6,0-9.64-1.39-10.28.65-1.23,3.87,3.39,6.94,5.94,10.1C397.55,124.82,404,130.4,407.32,138.16Z" transform="translate(-78.52 -68.22)"/><path class="cls-1" d="M510,119.51c4.93,6,11,11.31,14,18.68,1.15,2.82,2.61,3.23,5.14,3.2,7.49-.1,15-.28,22.48,0,4.63.21,8-.3,9-5.72.34-1.81,1.91-3.46,3.13-5,4.58-5.92,9.28-11.74,13.85-17.66,1.08-1.4,2.95-3,2.05-4.76-.8-1.59-3-.64-4.6-.65-11.16-.07-22.31,0-33.47,0-12,0-24,0-36,0-3.29,0-4,1.06-2.06,3.71S507.76,116.81,510,119.51Z" transform="translate(-78.52 -68.22)"/><path class="cls-1" d="M767.26,108.17c-.7-1.12-2.13-.58-3.23-.58q-17.48,0-35,0c-12,0-24,.06-36,0-3,0-3.74,1-2.11,3.42s3.54,4.81,5.41,7.13c5.1,6.32,11.55,11.73,14.78,19.3,1.43,3.36,3,4.08,6.19,4,6.82-.17,13.67-.38,20.47.06,5.28.35,9.26-.25,10.68-6.26.39-1.67,1.82-3.14,2.93-4.59,4.87-6.32,9.81-12.58,14.68-18.89C766.95,110.69,768.13,109.55,767.26,108.17Z" transform="translate(-78.52 -68.22)"/><path class="cls-1" d="M604.88,80c4.9,5.86,10.84,11.07,13.91,18.13,1.53,3.52,3.25,4.2,6.54,4.13,7.82-.17,15.66-.29,23.46,0,3.78.16,5.68-.91,6.75-4.6.66-2.3,2.29-4.4,3.79-6.36,4.84-6.35,9.84-12.57,14.71-18.9.66-.85,1.83-1.85,1.15-3.06s-2.1-.57-3.17-.57c-11.82,0-23.64,0-35.45,0-12,0-24,.06-36,0-3.16,0-3.57,1.07-1.85,3.39C600.73,74.78,602.75,77.42,604.88,80Z" transform="translate(-78.52 -68.22)"/><path class="cls-1" d="M524.65,100.8c.61,1.75,2.1,1.36,3.35,1.36,9.16,0,18.33,0,27.49,0,1.53,0,3.12.15,3.64-1.78,1.9-7,7.22-11.8,11.29-17.42,3.25-4.49,7.9-8.07,9.75-14.26h-5.25c-20,0-40-.06-60,0-4.08,0-10.76-1.72-11.68.75-1.48,4,3.85,7.35,6.58,10.78C515.1,86.92,521.74,92.51,524.65,100.8Z" transform="translate(-78.52 -68.22)"/><path class="cls-1" d="M407.86,100.68c.56,1.64,2,1.49,3.35,1.49q14,0,28,0c1.53,0,2.82-.06,3.39-2.06,1.82-6.45,6.58-11.05,10.47-16.2,3.57-4.72,8-8.82,10.89-15.17-23.09,0-45.37,0-67.66,0-3.43,0-9.23-1.3-9.8.59-1.11,3.72,3.26,6.66,5.66,9.73C397.62,86.11,404.85,91.85,407.86,100.68Z" transform="translate(-78.52 -68.22)"/><path class="cls-1" d="M696.28,78.9c5.45,7,12.75,12.73,15.77,21.55.73,2.14,2.61,1.71,4.22,1.71,7.49,0,15-.22,22.47.09,4.65.19,8.4,0,9.51-5.67.33-1.66,1.78-3.16,2.89-4.6,5-6.45,10-12.84,15-19.29.68-.89,1.76-1.84,1.26-3.08-.69-1.68-2.33-.83-3.5-.83-11.65-.07-23.3,0-35,0-11.82,0-23.64.11-35.45-.05-3.88-.05-4,1.29-2.06,3.9C693,74.74,694.66,76.81,696.28,78.9Z" transform="translate(-78.52 -68.22)"/><path class="cls-1" d="M192.81,101.08a2.29,2.29,0,0,0,2.41,1.41l29.41,0c1.28,0,2.41-.4,2.76-1.66,2.47-8.83,9.78-14.47,14.36-21.9,2.63-1.91,3.89-4.91,5.84-7.37,1.53-1.93,1-2.89-1.57-2.84-6.48.11-13,.12-19.46.16h0c-15.62,0-31.24-.18-46.86-.07-3,0-7.41-1.75-8.64,1-1.13,2.52,2.66,5.24,4.53,7.72C181.45,85.3,189.63,91.36,192.81,101.08Z" transform="translate(-78.52 -68.22)"/><path class="cls-1" d="M103.74,141.56h28.4c1.26,0,2.32-.25,2.61-1.7,2.22-6,6.23-10.82,10.12-15.75,3.38-4.29,6.76-8.57,10-12.93,1.74-2.31,1.76-3.79-1.87-3.72-9.45.19-18.91.18-28.36.26-14.28-.07-28.55-.09-42.83-.24-3.74,0-4,1.53-2.23,4.17,1.49,2.19,3.16,4.25,4.82,6.32C90.12,125,97.27,131,100.53,139.86,101.13,141.49,102.39,141.56,103.74,141.56Z" transform="translate(-78.52 -68.22)"/><path class="cls-1" d="M359.57,1102.58h0q43.85.08,87.71.14c6,0,13.24,1.84,17.52-.9,4.69-3,6.62-10.33,9.75-15.77a1.91,1.91,0,0,0,.13-.48c3.89-4.39,6.05-9.83,9-14.81,2.55-4.41,4.91-8.93,7.7-13.18,2.34-3.57.49-3.86-2.43-3.84-5.14.05-10.27.06-15.41.09h0l-87.05.12h0l-31.93,0h0c-1.82-.06-3.65-.19-5.47-.19q-71.56,0-143.12,0c-1.85,0-4,.93-5.56-1q20.55-35.44,41.1-70.88c.74-1.27,1.43-2.46.46-4.12q-13-22.32-25.82-44.73c-1.1-1.91-2-1.8-3.07.1q-16.7,29.32-33.46,58.61h0c-8.36,13.75-16.55,27.6-24.07,41.83h0q-19.1,32.83-38.19,65.67c-.61,1.06-1.9,1.92-1.23,3.41h58.49l79,0,63-.1Zm-159.19-49.79h0Z" transform="translate(-78.52 -68.22)"/><path class="cls-1" d="M342.29,111.51c1.93-2.49,2.17-4-1.86-4-15.92.16-31.85.17-47.77.23-5.8-.09-11.61-.33-17.4-.22-3.05.06-7.8-1.57-8.78.83-1.24,3,2.71,5.86,4.77,8.62,5.69,7.62,14,13.35,16.75,23.09a2.29,2.29,0,0,0,2.42,1.43c10.39-.28,20.81.78,31.18-.56h0A71,71,0,0,1,332.48,124C335.9,120,339,115.7,342.29,111.51Z" transform="translate(-78.52 -68.22)"/><path class="cls-1" d="M84.76,79.3c5.55,7,12.61,12.8,15.76,21.51.59,1.63,1.87,1.71,3.21,1.7,6.3-.07,12.6-.17,18.9-.25,6.55.88,12.93,1.58,15-7.18.35-1.5,1.76-2.78,2.77-4.1,4.85-6.31,9.75-12.56,14.57-18.89,1.65-2.16,1.56-3.41-1.76-3.37-13.46.16-26.91.16-40.37.22-10.45-.06-20.91-.07-31.36-.21-3,0-3.76,1-2.07,3.45S82.9,77,84.76,79.3Z" transform="translate(-78.52 -68.22)"/><path class="cls-1" d="M288,100.64a2.52,2.52,0,0,0,2.78,1.65c9.15-.26,18.32.46,27.47-.21,1.1-.07,2.2-.17,3.3-.3h0a80.14,80.14,0,0,1,10.32-16.11c3.68-4.28,7-8.88,10.47-13.35,1.88-2.42,1.83-3.65-1.79-3.61-14.33.16-28.66.15-43,.2H266c.79,3.72,3.13,6.06,5.11,8.67C276.87,85.15,284.95,91.06,288,100.64Z" transform="translate(-78.52 -68.22)"/></svg>