<svg id="Layer_1" data-name="Layer 1" xmlns="http://www.w3.org/2000/svg" xmlns:xlink="http://www.w3.org/1999/xlink" viewBox="0 0 1390.97 111.15"><defs><style>.cls-1,.cls-10,.cls-11,.cls-12,.cls-13,.cls-14,.cls-15,.cls-2,.cls-3,.cls-4,.cls-5,.cls-6,.cls-7,.cls-8,.cls-9{stroke:#000;stroke-miterlimit:10;stroke-width:0.5px;}.cls-1{fill:url(#linear-gradient);}.cls-2{fill:url(#linear-gradient-2);}.cls-3{fill:url(#linear-gradient-3);}.cls-4{fill:url(#linear-gradient-4);}.cls-5{fill:url(#linear-gradient-5);}.cls-6{fill:url(#linear-gradient-6);}.cls-7{fill:url(#linear-gradient-7);}.cls-8{fill:url(#linear-gradient-8);}.cls-9{fill:url(#linear-gradient-9);}.cls-10{fill:url(#linear-gradient-10);}.cls-11{fill:url(#linear-gradient-11);}.cls-12{fill:url(#linear-gradient-12);}.cls-13{fill:url(#linear-gradient-13);}.cls-14{fill:url(#linear-gradient-14);}.cls-15{fill:url(#linear-gradient-15);}</style><linearGradient id="linear-gradient" x1="47.71" y1="160.93" x2="47.71" y2="54.54" gradientUnits="userSpaceOnUse"><stop offset="0" stop-color="#cce0f4" stop-opacity="0.3"/><stop offset="0.42" stop-color="#626b75" stop-opacity="0.66"/><stop offset="0.78" stop-color="#1a1d20" stop-opacity="0.91"/><stop offset="0.99"/></linearGradient><linearGradient id="linear-gradient-2" x1="128.88" y1="162.91" x2="128.88" y2="53.02" xlink:href="#linear-gradient"/><linearGradient id="linear-gradient-3" x1="232.92" y1="160.93" x2="232.92" y2="54.54" xlink:href="#linear-gradient"/><linearGradient id="linear-gradient-4" x1="315.61" y1="161.09" x2="315.61" y2="54.54" xlink:href="#linear-gradient"/><linearGradient id="linear-gradient-5" x1="406.35" y1="163.21" x2="406.35" y2="53.02" xlink:href="#linear-gradient"/><linearGradient id="linear-gradient-6" x1="472.24" y1="160.93" x2="472.24" y2="54.54" xlink:href="#linear-gradient"/><linearGradient id="linear-gradient-7" x1="553.48" y1="161.09" x2="553.48" y2="54.54" xlink:href="#linear-gradient"/><linearGradient id="linear-gradient-8" x1="711.33" y1="161.09" x2="711.33" y2="54.54" xlink:href="#linear-gradient"/><linearGradient id="linear-gradient-9" x1="805.19" y1="161.09" x2="805.19" y2="54.54" xlink:href="#linear-gradient"/><linearGradient id="linear-gradient-10" x1="951.26" y1="163.21" x2="951.26" y2="52.87" xlink:href="#linear-gradient"/><linearGradient id="linear-gradient-11" x1="1052.72" y1="161.09" x2="1052.72" y2="54.39" xlink:href="#linear-gradient"/><linearGradient id="linear-gradient-12" x1="1115.65" y1="160.93" x2="1115.65" y2="54.54" xlink:href="#linear-gradient"/><linearGradient id="linear-gradient-13" x1="1181.54" y1="163.21" x2="1181.54" y2="53.02" xlink:href="#linear-gradient"/><linearGradient id="linear-gradient-14" x1="1271.67" y1="161.09" x2="1271.67" y2="54.54" xlink:href="#linear-gradient"/><linearGradient id="linear-gradient-15" x1="1372.37" y1="162.91" x2="1372.37" y2="52.56" xlink:href="#linear-gradient"/></defs><title>textAbs</title><path class="cls-1" d="M37.07,160.93V54.54H58.35v106.4Z" transform="translate(-36.82 -52.31)"/><path class="cls-2" d="M182.68,95.42v10.79c0,33.44-24.32,56.69-52.89,56.69h-.15A54.95,54.95,0,0,1,130.25,53h.46A54.87,54.87,0,0,1,164.6,65.18l-15.35,15a33.69,33.69,0,0,0-18.7-5.93h-.3a33.58,33.58,0,0,0-23.86,9.88,33.11,33.11,0,0,0-10,23.71,33.64,33.64,0,0,0,9.58,24,33.26,33.26,0,0,0,23.86,10.18c15.5,0,28.73-11.1,32.68-25.38h-24V95.42Z" transform="translate(-36.82 -52.31)"/><path class="cls-3" d="M223.73,139.81H263.4v21.13H202.45V54.54h21.28Z" transform="translate(-36.82 -52.31)"/><path class="cls-4" d="M351.1,75.82h-71V54.54h71Zm-71,19.76h58.82v21.28H280.12Zm0,44.23h70.52v21.28H280.12Z" transform="translate(-36.82 -52.31)"/><path class="cls-5" d="M404.76,115.94c-3.5-.91-10-2.58-16.11-6.69a29.24,29.24,0,0,1-13.68-24,28.51,28.51,0,0,1,7.75-21.74C390.62,55.3,402,53,407.49,53c15.5,0,24.17,5.62,31.92,10.64l3.5,2.28L431.81,84,428,81.59c-6.84-4.41-11.25-7.3-20.52-7.3-1.37,0-6.69,1.06-9.42,4-.91.91-2,2.58-1.82,6.08.15,5.47,4,8.51,13.68,10.94,1.22.3,2.13.61,3,.91,10.18,3.5,18.09,8.21,23.56,14.14a30.78,30.78,0,0,1,8.36,20.82,33.13,33.13,0,0,1-33,32.07,63.08,63.08,0,0,1-18.69-2.58,58.9,58.9,0,0,1-25.38-16.11l15.5-14.59a36.82,36.82,0,0,0,28.57,12c8.82,0,11.7-8.06,11.7-10.79,0-5.78-6.54-11.1-17.63-14.9l-.46-.15Z" transform="translate(-36.82 -52.31)"/><path class="cls-6" d="M461.6,160.93V54.54h21.28v106.4Z" transform="translate(-36.82 -52.31)"/><path class="cls-7" d="M558.58,54.54l50.31,106.55H585.33l-30.4-64.75-33,64.75H498.08L552.34,54.54Z" transform="translate(-36.82 -52.31)"/><path class="cls-8" d="M699.78,54.54A52.37,52.37,0,0,1,737.33,70a50.81,50.81,0,0,1,11.4,17,52.7,52.7,0,0,1,0,41.49,48.76,48.76,0,0,1-11.4,16.87,53.34,53.34,0,0,1-37.54,15.66H678.35v-.15h-8.66V54.54Zm0,85.27a32,32,0,0,0,0-64H691v64Z" transform="translate(-36.82 -52.31)"/><path class="cls-9" d="M840.68,75.82h-71V54.54h71Zm-71,19.76h58.82v21.28H769.7Zm0,44.23h70.52v21.28H769.7Z" transform="translate(-36.82 -52.31)"/><path class="cls-10" d="M981.58,80.38C960.91,67,929.75,79.47,929.75,108c0,29.94,33,41.95,53,26.75l13.68,15.66a55.13,55.13,0,1,1-1.22-85.88Z" transform="translate(-36.82 -52.31)"/><path class="cls-11" d="M1036,75.67v85.27h-21.28V54.39h41.65a32,32,0,0,1,13.22,61.1l21.13,45.6h-22.65l-19.91-42.71V97.1h8.21A10.57,10.57,0,0,0,1067,86.46a10.7,10.7,0,0,0-10.64-10.79Z" transform="translate(-36.82 -52.31)"/><path class="cls-12" d="M1105,160.93V54.54h21.28v106.4Z" transform="translate(-36.82 -52.31)"/><path class="cls-13" d="M1179.94,115.94c-3.5-.91-10-2.58-16.11-6.69a29.24,29.24,0,0,1-13.68-24,28.51,28.51,0,0,1,7.75-21.74c7.9-8.21,19.3-10.49,24.77-10.49,15.5,0,24.17,5.62,31.92,10.64l3.5,2.28L1207,84l-3.8-2.43c-6.84-4.41-11.25-7.3-20.52-7.3-1.37,0-6.69,1.06-9.42,4-.91.91-2,2.58-1.82,6.08.15,5.47,4,8.51,13.68,10.94,1.22.3,2.13.61,3,.91,10.18,3.5,18.09,8.21,23.56,14.14a30.78,30.78,0,0,1,8.36,20.82,33.14,33.14,0,0,1-33,32.07,63.08,63.08,0,0,1-18.7-2.58A58.9,58.9,0,0,1,1143,144.52l15.5-14.59a36.82,36.82,0,0,0,28.58,12c8.82,0,11.7-8.06,11.7-10.79,0-5.78-6.54-11.1-17.63-14.9l-.46-.15Z" transform="translate(-36.82 -52.31)"/><path class="cls-14" d="M1311.88,54.54V75.82h-29.49v85.27h-21.28V75.82h-29.64V54.54Z" transform="translate(-36.82 -52.31)"/><path class="cls-15" d="M1427.55,107.74a55.17,55.17,0,1,1-55.17-55.17A55.27,55.27,0,0,1,1427.55,107.74Zm-88.46,0a33.29,33.29,0,1,0,33.29-33.29A33.28,33.28,0,0,0,1339.09,107.74Z" transform="translate(-36.82 -52.31)"/></svg>