<svg id="Layer_1" data-name="Layer 1" xmlns="http://www.w3.org/2000/svg" xmlns:xlink="http://www.w3.org/1999/xlink" width="610.04" height="851.04" viewBox="0 0 610.04 851.04">
  <defs>
    <style>
      .cls-1 {
        fill: url(#linear-gradient);
      }

      .cls-2 {
        fill: url(#radial-gradient);
      }

      .cls-3 {
        fill: url(#linear-gradient-2);
        -webkit-animation: fade 1s ease-out both infinite;
        
      }

      .cls-4 {
        fill: url(#linear-gradient-3);
        -webkit-animation: fade 1s ease-out both infinite;
         -webkit-animation-delay: .2s;
      }
        
        @-webkit-keyframes fade {
                0%,100% { opacity: 0; }
            50% { opacity: 1; }  
                        
                  }
    </style>
    <linearGradient id="linear-gradient" x1="316" y1="422.86" x2="316" y2="860" gradientUnits="userSpaceOnUse">
      <stop offset="0" stop-color="#6fc"/>
      <stop offset="0.99" stop-color="#6fc" stop-opacity="0.5"/>
    </linearGradient>
    <radialGradient id="radial-gradient" cx="305.02" cy="289.54" r="108.5" gradientUnits="userSpaceOnUse">
      <stop offset="0" stop-color="#6fc" />
      <stop offset="1" stop-color="#6fc"/>
    </radialGradient>
    <linearGradient id="linear-gradient-2" y1="483.83" y2="93.99" xlink:href="#linear-gradient"/>
    <linearGradient id="linear-gradient-3" x1="316" y1="587.54" x2="316" y2="8.96" gradientUnits="userSpaceOnUse">
      <stop offset="0" stop-color="#6fc"/>
      <stop offset="0.23" stop-color="#6fc" stop-opacity="0.89"/>
      <stop offset="0.99" stop-color="#6fc" stop-opacity="0.5"/>
    </linearGradient>
  </defs>
  <title>liveIcon</title>
  
  <path class="cls-1" d="M329.86,793l-23.85.85c-37.79,0-68.42-39.77-68.42-81.95l-22-259.5c0-42.18,193.41-42.07,193.41-1.4L387.41,710.9C387.41,753.08,367.65,793,329.86,793Z" transform="translate(-10.98 -8.96)"/>
  <circle class="cls-2" cx="305.02" cy="289.54" r="108.5"/>
  <path class="cls-3" d="M316,94C194.26,94,95.57,192.68,95.57,314.42A219.83,219.83,0,0,0,166.06,476a82.63,82.63,0,0,1,18.54-27.94,187.58,187.58,0,0,1-58-135.86c0-103.91,84.24-188.15,188.15-188.15S502.89,208.29,502.89,312.2A187.64,187.64,0,0,1,440,452.54c7.61,9.86,13.57,20.58,17,31.29a220,220,0,0,0,79.41-169.41C536.43,192.68,437.74,94,316,94Z" transform="translate(-10.98 -8.96)"/>
  <path class="cls-4" d="M316,9C147.54,9,11,145.52,11,314,11,429.44,75.14,529.91,169.75,581.7l-5.49-58A260,260,0,0,1,53.9,310.91c0-143.79,116.57-260.36,260.36-260.36S574.61,167.12,574.61,310.91a260.12,260.12,0,0,1-118,218L451,587.54C551.75,537.73,621,434,621,314,621,145.52,484.46,9,316,9Z" transform="translate(-10.98 -8.96)"/>
</svg>
