<svg id="Layer_1" data-name="Layer 1" xmlns="http://www.w3.org/2000/svg" xmlns:xlink="http://www.w3.org/1999/xlink" width="616.09" height="695.15" viewBox="0 0 616.09 695.15">
  <defs>
    <style>
      .cls-1 {
        fill: url(#linear-gradient);
      }

      .cls-2 {
        fill: url(#linear-gradient-2);
      }

      .cls-3 {
        stroke: #6fc;
        stroke-miterlimit: 10;
        stroke-width: 6px;
        margin: -100px;
        fill: url(#linear-gradient-3);
        transform: scale(.99) rotate(-5deg) rotateX(-5deg) rotateY(-20deg) ;
        -webkit-transform-origin: 100% 100% 0;
        
      }
        
        .cls-3{
                  stroke-dasharray: 3400;
                  stroke-dashoffset: 3400;
                    stroke-linecap: round;
                  -webkit-animation: dash .5s ease-out alternate infinite;
                      
              }
                                   
              @-webkit-keyframes dash {
                
                to{
            transform: scale(1) rotate(5deg) rotateX(5deg) rotateY(20deg);       
        }
        }
        
        
    </style>
    <linearGradient id="linear-gradient" x1="-613" y1="50" x2="-613" y2="50" gradientUnits="userSpaceOnUse">
      <stop offset="0" stop-color="#6fc"/>
      <stop offset="0.99" stop-color="#6fc" stop-opacity="0.5"/>
    </linearGradient>
    <linearGradient id="linear-gradient-2" x1="-390" y1="248" x2="-390" y2="248" xlink:href="#linear-gradient"/>
    <linearGradient id="linear-gradient-3" x1="314.95" y1="81" x2="314.95" y2="770.15" gradientUnits="userSpaceOnUse">
      <stop offset="0" stop-color="#6fc"/>
      <stop offset="1" stop-color="#6fc" stop-opacity="0.5"/>
    </linearGradient>
  </defs>
  <title>musicIcon</title>
  <path class="cls-1" d="M-613,50" transform="translate(-15.91 -78)"/>
  <path class="cls-2" d="M-390,248" transform="translate(-15.91 -78)"/>
  <path class="cls-3" d="M510.38,195.71a21.37,21.37,0,0,0,1.17-12.57l-.78-85.05a21.47,21.47,0,0,0-25.41-16.62l-303.16,59a21.47,21.47,0,0,0-16.62,25.41l.78,87.48c.11.51.25,1,.39,1.49V517.33a180.69,180.69,0,0,0-39.32-4.23c-59.94,0-108.53,28-108.53,62.45S67.49,638,127.43,638c59.56,0,107.9-27.6,108.51-61.79h1.23V260.81L440,219.69V412.25A180.69,180.69,0,0,0,400.64,408c-59.94,0-108.53,28-108.53,62.45s48.59,62.45,108.53,62.45,108.53-28,108.53-62.45c0-.19,0-.37,0-.55h1.23Z" transform="translate(-15.91 -78)"/>
</svg>
