<svg width="52" height="34" viewBox="0 0 52 34" fill="none" xmlns="http://www.w3.org/2000/svg">
<path d="M20.5 28.8481H12.864L11.184 33.9841H0L12.432 6.78863e-05L20.5 7.26547e-05L32.5 33.9841L22.648 33.9841L20.5 28.8481Z" fill="white"/>
<path d="M45.085 16.56C47.133 17.04 48.717 18.032 49.837 19.536C50.989 21.008 51.565 22.72 51.565 24.672C51.565 27.648 50.573 29.952 48.589 31.584C46.637 33.184 43.821 33.984 40.141 33.984L37.117 33.984L25 -4.94244e-06L39.661 1.18065e-05C43.117 1.18065e-05 45.837 0.752012 47.821 2.25601C49.805 3.76001 50.797 5.95201 50.797 8.83201C50.797 10.816 50.269 12.496 49.213 13.872C48.189 15.216 46.813 16.112 45.085 16.56Z" fill="white"/>
</svg>
