<?xml version="1.0" encoding="utf-8"?>
<!-- Generator: Adobe Illustrator 21.0.0, SVG Export Plug-In . SVG Version: 6.00 Build 0)  -->
<svg version="1.1" id="Layer_1" xmlns="http://www.w3.org/2000/svg" xmlns:xlink="http://www.w3.org/1999/xlink" x="0px" y="0px"
	 viewBox="0 0 589.8 267.4" style="enable-background:new 0 0 589.8 267.4;" xml:space="preserve">
<title>Untitled-1</title>
<path d="M328.7,134.3c0,35.5-13.8,69.6-38.6,95.1c-22.5,24.1-52.3,38.2-79.8,38.2H98.4V25.4h108.9c21.8,0,44.7,11.5,65.7,32.5
	c19.5,21.4,30.2,48.9,30.2,76.4c0,27.1-11.1,53.9-31.3,75.6c-18.7,19.9-43.2,31.7-64.2,31.7l-82.1,0.4v-6.9l0-186.1H139l0,179.2
	l68.6-0.4c16.8,0,37-10.7,53.9-27.5c18-18.7,27.9-42.8,27.9-66.1c-0.1-16.1-4-31.9-11.5-46.2c-15.6-30.2-42.8-48.5-70.6-48.5
	l-95.1-0.4v214.3h98.1c16.4,0,33.6-5.7,50.8-17.6c34.8-22.9,54.2-60.4,54.2-101.6c0-19.5-5-39-14.5-57.7
	c-19.9-37.4-55-61.5-90.5-61.5L98.4,14.7V0.9h111.9c28.6,0,58.1,14.1,81,38.2C315.5,64.8,328.9,98.9,328.7,134.3z"/>
<polygon points="14.2,253 0,253 0,267.4 44,267.4 44,253.6 14.2,253.6 "/>
<g>
	<rect y="0" width="41.3" height="12"/>
	<rect x="27.1" y="23" width="14.1" height="218.8"/>
	<rect y="23" width="14.2" height="219"/>
</g>
<g>
	<path d="M537.8,187.8l-7.5-11.3l-6.1,3.8c-24.1,15.7-35.9,20.3-52.3,20.3c-22.9,0-44.7-13.4-56.9-34c-6.3-9.7-9.6-21-9.5-32.5
		c-0.1-36.8,29.7-66.7,66.5-66.8c13.8-0.2,27.4,4.1,38.6,12.2c2.5,1.5,4.8,3.3,6.9,5.3L523,89l25.6-30.2l-4.2-4.2
		c-3.1-2.9-6.6-5.5-10.3-7.6c-18-13.8-39-20.6-62.3-20.6c-28.6,0-55,11.1-76,31.3c-20.3,21.4-31.7,47.8-31.7,76.4
		c0.3,59.4,48.3,107.8,107.7,107.8c20.6,0,62.6-20.3,80.6-31.7l-7.6-11.5c-15.6,10.3-55,29.8-73,29.8c-51.9-0.3-93.9-42.4-94-94.3
		c0.3-51.8,42.2-93.7,94-94c18.7,0,36.6,5.7,54.6,17.6l3,2.6l-8.4,9.5c-1-0.3-1.9-0.8-2.7-1.5c-13.7-9.5-30-14.5-46.6-14.5
		c-29.4,0-54.2,14.5-69.1,40.1c-7.2,12.2-11,26-11,40.1c0,27.1,16,54.6,40.8,69.4c12.6,7.3,25.6,11.1,39.3,11.1
		c18,0,32.5-5.4,54.2-19.1"/>
	<path d="M541.5,230c-25.4,15.9-45.9,22.5-70.2,22.5c-42.6-0.1-82.1-22.7-103.5-59.6c-10.6-18.1-16.1-38.6-16-59.6
		c0-42.8,22.9-82.2,60-103.5c18.1-10.6,38.6-16.1,59.6-16c29.9-0.1,58.7,11,80.6,31.3l2.3,1.9l3.1,3l9.5-9.9l-5.3-5.3
		c-24.8-22.1-56.9-34.3-90.2-34.4c-48.5,0-90.9,24.8-115,66.1c-12.2,21-18.3,43.2-18.3,66.9c0,47,26.4,91.3,67.2,115.4
		c20,11.8,42.8,18.1,66.1,18c30.2,0,55.4-9.6,89.4-32.9l5.3-3.4l-8.1-12.1"/>
</g>
</svg>
